<?xml version="1.0" standalone="no"?>
<!DOCTYPE svg PUBLIC "-//W3C//DTD SVG 20010904//EN"
 "http://www.w3.org/TR/2001/REC-SVG-20010904/DTD/svg10.dtd">
<svg version="1.0" xmlns="http://www.w3.org/2000/svg"
 width="900.000000pt" height="900.000000pt" viewBox="0 0 900.000000 900.000000"
 preserveAspectRatio="xMidYMid meet">
<metadata>
Created by potrace 1.11, written by Peter Selinger 2001-2013
</metadata>
<g transform="translate(0.000000,900.000000) scale(0.100000,-0.100000)"
fill="#000000" stroke="none">
<path d="M1 8825 c1 -147 4 -175 16 -171 8 3 12 2 8 -3 -7 -13 5 -42 15 -36
17 10 19 -13 3 -26 -9 -8 -14 -9 -11 -4 4 6 -1 21 -11 33 -16 21 -17 22 -17 3
0 -11 4 -19 9 -18 5 1 11 -9 13 -22 5 -30 14 -41 14 -17 0 13 4 15 19 7 10 -6
21 -7 25 -4 3 3 6 1 6 -6 0 -8 -6 -11 -16 -7 -8 3 -23 -2 -32 -11 -16 -15 -16
-16 0 -11 21 9 31 -2 17 -19 -9 -9 -8 -13 0 -13 10 0 15 13 12 33 0 4 4 7 10
7 12 0 8 -42 -6 -52 -5 -4 -6 -10 -2 -15 9 -9 28 17 21 29 -3 4 0 8 5 8 6 0
11 -5 11 -11 0 -5 5 -7 12 -3 7 4 8 3 4 -5 -4 -6 -12 -9 -17 -6 -5 4 -9 3 -9
-2 0 -12 16 -35 24 -34 24 3 28 0 17 -13 -7 -9 -8 -17 -2 -20 5 -3 11 -3 14 1
2 5 2 2 0 -5 -1 -8 3 -12 9 -9 7 2 12 10 10 16 -1 7 2 10 8 6 13 -8 -8 -42
-26 -42 -7 0 -11 4 -9 8 6 9 -24 34 -32 25 -3 -3 0 -6 7 -6 9 0 7 -7 -6 -22
-15 -19 -16 -20 -2 -9 16 12 22 9 19 -11 0 -4 6 -5 15 -1 9 3 21 -3 31 -16 11
-17 18 -19 28 -11 9 8 15 8 20 0 4 -6 1 -9 -7 -8 -8 2 -12 -5 -10 -17 2 -11 4
-28 6 -37 3 -21 16 -36 16 -19 0 7 5 9 11 5 8 -4 7 -9 -2 -15 -12 -7 -12 -11
-1 -18 7 -4 14 -15 16 -23 1 -9 7 -23 14 -31 7 -8 12 -19 11 -23 -4 -21 2 -28
12 -14 8 12 9 10 4 -9 -6 -18 -4 -22 6 -15 11 6 12 5 2 -8 -7 -8 -10 -18 -6
-21 3 -4 12 1 20 11 13 16 14 16 5 -2 -13 -25 -42 -30 -37 -7 2 10 0 23 -4 30
-5 7 -8 -6 -7 -28 0 -23 4 -41 8 -41 5 0 8 5 8 11 0 5 5 7 10 4 8 -5 7 -11 -1
-21 -7 -9 -8 -14 -3 -13 22 4 35 -2 28 -13 -5 -7 -3 -8 6 -3 10 6 12 4 7 -9
-4 -10 -7 -20 -7 -22 0 -3 -5 -2 -12 2 -7 4 -8 3 -4 -4 4 -6 13 -9 21 -6 8 4
13 10 10 14 -3 5 5 6 17 2 l22 -5 -22 -8 c-23 -9 -30 -29 -11 -29 5 0 8 4 5 8
-3 5 1 9 8 9 8 0 12 -7 8 -15 -4 -11 -1 -13 8 -7 8 5 11 4 6 -3 -3 -6 4 -21
16 -33 l23 -21 -22 11 c-16 8 -23 8 -23 1 0 -6 -5 -8 -10 -5 -6 4 -5 -5 2 -19
6 -14 18 -26 26 -26 12 0 12 -3 2 -16 -11 -12 -11 -15 1 -12 9 2 13 -4 11 -14
-2 -10 2 -18 8 -18 6 0 8 5 4 11 -4 7 1 7 15 -1 18 -9 20 -14 10 -26 -6 -8 -8
-14 -3 -14 5 0 2 -5 -6 -10 -10 -6 -11 -10 -2 -10 6 0 12 -5 12 -11 0 -5 -5
-7 -11 -3 -8 4 -8 0 0 -15 14 -25 23 -28 14 -3 -6 15 -5 15 10 4 8 -8 13 -20
10 -28 -3 -8 0 -14 7 -14 7 0 10 -6 7 -13 -3 -8 0 -14 7 -14 6 0 12 8 12 18 0
10 -5 15 -10 12 -5 -4 -6 -1 -1 7 5 8 4 11 -2 7 -5 -3 -10 0 -10 7 0 19 19 10
35 -15 10 -15 10 -19 1 -14 -7 5 -10 3 -7 -6 3 -8 11 -13 18 -11 11 2 11 0 1
-12 -8 -9 -8 -16 -2 -20 6 -4 8 -13 5 -21 -6 -16 -24 -11 -24 6 0 6 5 7 12 3
7 -5 8 -3 3 5 -5 9 -10 10 -18 2 -7 -7 -7 -14 1 -24 7 -8 8 -18 4 -22 -4 -5
-1 -5 6 -1 7 4 12 1 12 -9 0 -9 5 -13 10 -10 8 5 7 11 -1 21 -6 8 -10 14 -8
15 26 6 51 4 56 -4 3 -6 1 -7 -4 -4 -13 8 -27 -17 -32 -58 -1 -5 -6 -3 -11 5
-7 12 -9 10 -7 -7 1 -15 5 -19 12 -13 7 6 16 5 25 -3 10 -10 11 -9 5 2 -5 9 2
7 17 -5 14 -10 24 -21 22 -23 -2 -2 -10 2 -19 9 -12 10 -15 10 -15 0 0 -10 -4
-9 -17 1 -17 13 -17 13 0 -7 9 -11 14 -24 11 -27 -4 -4 4 -15 17 -26 18 -15
21 -22 12 -33 -10 -11 -8 -14 10 -15 12 0 17 1 10 4 -7 2 -10 10 -7 17 3 8 -2
21 -11 30 -9 9 -12 16 -6 16 5 0 13 -5 16 -10 4 -6 10 -8 13 -6 4 2 7 -14 5
-37 -2 -39 -1 -40 13 -23 8 11 14 16 14 10 -1 -16 -27 -44 -34 -37 -4 4 -4 -1
0 -10 6 -17 8 -16 21 3 14 19 40 19 27 -1 -3 -5 -10 -7 -15 -4 -5 4 -9 -1 -9
-9 0 -9 -5 -16 -12 -16 -6 0 -8 -3 -5 -6 4 -4 13 -2 21 5 12 10 14 5 11 -29
-3 -40 8 -54 19 -24 3 8 2 13 -2 10 -5 -3 -9 1 -9 8 0 8 7 12 15 8 11 -4 13
-1 7 9 -4 8 -4 11 0 6 11 -10 14 -48 3 -41 -4 3 -8 -4 -8 -16 0 -13 -4 -19
-12 -14 -7 4 -8 3 -4 -5 4 -6 12 -9 17 -6 5 4 9 2 9 -4 0 -5 -8 -12 -17 -14
-16 -4 -16 -5 1 -6 14 -1 16 -4 7 -14 -8 -11 -5 -13 17 -12 15 1 34 5 41 9 7
5 18 3 24 -4 9 -10 9 -11 0 -6 -21 12 -36 -4 -21 -22 7 -9 9 -13 3 -11 -5 3
-19 -3 -29 -14 -21 -22 -24 -23 32 0 8 3 13 0 12 -8 -4 -28 0 -40 12 -33 6 4
8 3 4 -4 -3 -6 -2 -13 3 -17 6 -3 8 -12 4 -20 -3 -8 0 -15 7 -15 7 0 10 -6 7
-13 -3 -8 -1 -20 3 -28 6 -9 2 -22 -13 -39 -16 -18 -17 -21 -3 -10 18 14 18
13 13 -10 -4 -14 -4 -19 -1 -12 3 6 10 10 15 6 5 -3 5 -14 -2 -25 -6 -12 -8
-23 -5 -27 3 -3 6 0 6 7 0 7 4 10 9 6 6 -3 8 -14 6 -25 -2 -12 0 -18 6 -15 9
6 13 -7 10 -31 -1 -7 6 -15 15 -18 14 -5 14 -9 3 -24 -7 -9 -9 -14 -5 -10 10
9 36 -9 36 -24 0 -6 -7 -5 -15 2 -9 7 -15 8 -15 2 0 -5 7 -12 15 -16 9 -3 12
-12 9 -23 -5 -15 -4 -15 4 -3 6 8 8 18 5 24 -3 5 -1 6 5 2 8 -5 10 -2 6 8 -3
9 -2 16 3 16 5 0 9 -11 9 -24 0 -14 -4 -22 -8 -20 -4 3 -8 0 -8 -7 0 -6 8 -9
18 -7 11 3 19 0 19 -8 0 -8 -10 -11 -27 -9 -18 2 -27 -2 -27 -11 0 -10 4 -11
14 -2 17 14 20 10 26 -27 5 -41 17 -66 28 -59 5 3 9 1 9 -5 0 -6 8 -8 18 -5
13 5 14 4 3 -4 -15 -11 -4 -21 21 -17 11 2 15 -2 11 -12 -3 -8 -9 -11 -12 -6
-3 5 -15 9 -26 9 -11 0 -19 5 -17 12 3 17 -15 15 -22 -3 -3 -8 -2 -14 2 -14
20 3 23 -3 11 -18 -13 -16 -12 -17 3 -4 15 11 22 11 43 -3 14 -9 25 -19 25
-21 0 -3 -11 2 -24 10 -18 12 -26 13 -32 4 -5 -8 -3 -9 6 -4 10 6 12 4 7 -8
-3 -9 1 -23 9 -32 14 -13 14 -18 2 -32 -9 -12 -9 -15 0 -9 6 4 12 2 12 -3 0
-6 -5 -11 -12 -11 -6 0 -9 -2 -6 -5 3 -3 13 -3 22 1 12 4 14 10 6 19 -7 8 -3
15 15 23 16 7 26 8 30 1 4 -5 3 -9 -2 -8 -18 3 -33 -2 -33 -11 0 -5 6 -7 14
-4 8 3 17 1 21 -5 4 -7 0 -8 -10 -5 -10 4 -15 2 -13 -6 2 -7 -5 -14 -15 -15
-29 -5 -32 -14 -6 -13 13 1 30 6 38 12 12 10 12 8 0 -12 -8 -12 -19 -20 -25
-18 -23 9 -9 -27 15 -37 29 -13 42 -27 35 -39 -3 -4 -1 -8 4 -8 6 0 13 -7 16
-16 3 -8 2 -13 -3 -10 -4 3 -13 -6 -20 -20 -6 -15 -7 -23 -1 -19 5 3 10 1 10
-6 0 -10 3 -10 12 -1 7 7 17 12 23 12 6 0 6 -3 -1 -8 -16 -11 -27 -75 -11 -69
6 2 11 11 11 19 -1 8 5 15 12 15 16 0 18 -13 4 -22 -5 -3 -10 -11 -10 -16 0
-6 5 -7 12 -3 6 4 8 3 4 -4 -3 -6 2 -15 11 -21 10 -6 12 -11 6 -11 -7 0 -13
-5 -13 -11 0 -5 4 -8 8 -5 7 4 11 -12 12 -57 1 -10 6 -15 13 -11 8 5 8 3 0 -7
-18 -19 -16 -34 2 -19 17 14 31 8 21 -9 -4 -5 -19 -8 -34 -6 -23 4 -22 2 10
-14 46 -22 63 -36 26 -22 -22 8 -26 8 -21 -4 3 -8 10 -12 17 -8 7 4 7 1 -1 -9
-7 -8 -10 -18 -6 -21 3 -4 12 1 20 11 12 16 13 16 7 -1 -5 -13 -2 -16 12 -11
18 5 18 5 1 -6 -19 -12 -13 -35 6 -23 8 4 7 1 -1 -9 -9 -12 -10 -18 -2 -23 8
-5 7 -12 -3 -23 -8 -10 -17 -24 -21 -32 -4 -8 0 -6 8 4 14 17 16 17 16 3 0
-11 6 -15 18 -11 14 5 15 4 2 -5 -11 -8 -12 -11 -2 -11 7 0 10 -4 7 -10 -3 -5
2 -10 12 -11 13 0 14 -2 4 -6 -8 -3 -23 5 -33 18 -11 13 -17 18 -13 12 4 -9 1
-11 -9 -7 -9 3 -16 1 -16 -5 0 -6 3 -10 8 -10 22 4 32 -4 32 -25 0 -13 -6 -27
-12 -29 -7 -3 -1 -4 15 -3 15 2 30 6 34 9 3 4 11 7 17 7 6 0 3 -5 -6 -11 -10
-5 -15 -16 -12 -24 4 -8 1 -15 -6 -15 -6 0 -9 4 -5 9 3 5 0 13 -6 17 -8 5 -9
3 -4 -6 6 -10 3 -12 -11 -7 -18 7 -18 6 -1 -7 14 -11 15 -15 5 -20 -7 -3 -4
-4 7 -1 13 3 26 -5 39 -22 11 -14 15 -23 9 -20 -6 4 -14 0 -17 -9 -9 -24 -7
-28 7 -16 10 8 13 6 13 -8 0 -12 -6 -17 -19 -14 -14 2 -16 0 -8 -10 7 -9 7
-16 -2 -26 -10 -12 -9 -12 3 -3 10 8 21 9 30 3 13 -8 12 -10 -2 -10 -10 0 -18
-5 -18 -11 0 -5 4 -7 10 -4 5 3 18 1 27 -5 14 -9 14 -10 2 -7 -12 4 -15 0 -11
-20 4 -20 2 -24 -9 -18 -8 5 -6 -1 4 -12 14 -16 15 -22 5 -26 -9 -4 -9 -6 -1
-6 7 -1 10 -8 7 -16 -4 -8 -1 -15 5 -15 7 0 11 -7 9 -16 -2 -10 3 -18 10 -20
7 -1 8 0 2 3 -8 3 -7 9 1 19 9 11 9 14 0 14 -7 0 -10 4 -6 9 3 5 1 12 -4 16
-5 3 -8 14 -6 25 3 14 0 18 -8 13 -9 -5 -9 -3 0 9 7 8 10 18 6 22 -4 4 1 4 11
0 10 -4 14 -10 9 -13 -7 -5 -10 -26 -3 -33 4 -6 11 -44 11 -61 0 -11 5 -15 12
-11 8 5 8 3 0 -7 -18 -19 -16 -34 2 -19 13 10 18 11 28 1 9 -10 8 -11 -4 -6
-10 4 -20 1 -24 -5 -5 -8 -11 -8 -21 1 -8 7 -14 7 -14 1 0 -14 26 -23 47 -16
15 5 16 4 3 -5 -13 -10 -13 -12 0 -21 13 -8 13 -11 1 -22 -9 -9 -12 -9 -7 -1
4 7 -6 19 -26 29 l-32 17 32 -33 c28 -28 35 -30 50 -19 14 11 15 11 5 -1 -15
-17 -17 -34 -3 -25 6 4 5 -5 -2 -20 -8 -17 -15 -22 -22 -15 -13 13 -26 13 -26
-1 0 -5 5 -7 10 -4 6 3 13 -1 16 -9 5 -13 9 -12 23 6 13 15 20 18 25 9 4 -6 3
-10 -2 -9 -6 2 -10 -1 -10 -7 0 -5 4 -9 10 -7 5 1 7 -2 3 -7 -3 -6 -12 -8 -20
-4 -8 3 -15 0 -15 -6 0 -6 -7 -8 -15 -5 -8 4 -12 11 -8 17 4 6 1 7 -7 2 -10
-6 -9 -11 4 -21 11 -7 15 -18 10 -25 -4 -7 -3 -10 3 -6 19 12 23 -22 5 -40
-16 -16 -16 -16 3 -9 34 13 55 15 55 5 0 -5 -9 -9 -20 -9 -11 0 -20 -4 -20
-10 0 -5 9 -10 19 -10 18 0 32 -19 30 -43 0 -7 -4 -3 -8 7 -4 11 -18 20 -32
22 -13 1 -18 0 -11 -2 6 -3 9 -11 6 -16 -4 -7 -2 -8 4 -4 6 4 16 -4 23 -16 9
-19 9 -21 -2 -10 -7 6 -18 12 -23 12 -6 0 -3 -5 7 -11 9 -6 15 -15 12 -20 -4
-5 -10 -7 -15 -4 -5 3 -12 0 -16 -6 -5 -8 -3 -9 6 -4 10 6 12 3 7 -11 -5 -15
-3 -14 9 3 22 31 38 29 18 -2 -20 -30 -12 -33 14 -5 19 20 19 20 17 -10 -1
-20 2 -29 10 -26 6 2 12 -2 12 -9 0 -7 -6 -11 -13 -8 -15 6 -12 -23 4 -39 15
-15 16 -32 2 -23 -5 3 -10 0 -10 -9 0 -8 -6 -17 -13 -19 -9 -4 -9 -6 1 -6 6
-1 12 -6 12 -12 0 -5 -4 -8 -8 -5 -5 3 -9 -1 -9 -9 0 -11 4 -12 14 -4 7 7 12
18 11 27 -2 8 5 16 16 18 14 2 16 0 7 -9 -15 -15 -14 -32 2 -19 10 8 13 6 13
-8 0 -14 -4 -16 -16 -10 -12 6 -20 2 -30 -13 -12 -20 -12 -21 3 -8 13 10 17
10 17 1 0 -7 7 -10 16 -6 9 3 12 2 9 -5 -4 -6 -13 -8 -21 -5 -7 3 -16 1 -19
-4 -4 -6 1 -10 9 -10 10 0 13 -6 9 -17 -4 -11 3 -24 23 -41 l29 -25 -37 21
c-36 20 -37 20 -25 2 6 -11 17 -20 23 -20 7 0 15 -7 18 -16 5 -14 4 -15 -9 -4
-9 7 -18 10 -22 6 -3 -3 -1 -6 6 -6 15 0 10 -42 -9 -66 -14 -18 -14 -18 7 0
13 10 20 22 18 27 -9 13 16 22 28 10 9 -9 7 -10 -7 -5 -14 5 -17 4 -12 -5 4
-6 2 -19 -5 -27 -10 -12 -10 -17 0 -27 7 -7 11 -7 9 -2 -3 10 4 15 22 15 6 0
2 -8 -7 -18 -12 -13 -22 -16 -30 -9 -9 6 -13 6 -13 -1 0 -5 7 -13 16 -16 8 -3
12 -11 8 -17 -4 -7 -8 -22 -10 -35 -2 -18 2 -22 22 -19 13 1 31 -6 40 -16 10
-11 12 -19 6 -19 -7 0 -12 5 -12 11 0 5 -4 7 -10 4 -5 -3 -10 -16 -10 -29 0
-12 -5 -27 -12 -34 -10 -10 -6 -18 17 -40 16 -15 24 -20 17 -11 -9 12 -9 16 3
16 8 0 12 -4 9 -9 -3 -4 1 -8 8 -8 10 0 9 -3 -2 -9 -8 -6 -17 -8 -21 -5 -4 2
-9 -2 -12 -10 -5 -13 36 -70 45 -61 2 3 5 -2 5 -10 0 -8 -4 -12 -8 -9 -4 2 -7
-5 -6 -17 1 -12 9 -24 19 -27 10 -2 18 -8 18 -13 0 -5 -7 -6 -15 -2 -9 3 -15
2 -13 -3 2 -5 -2 -9 -7 -9 -6 0 -9 8 -9 18 1 9 -3 17 -7 17 -5 0 -7 -11 -5
-24 2 -14 -1 -27 -7 -30 -7 -2 6 -3 28 -1 25 3 35 1 26 -4 -8 -5 -11 -16 -8
-26 5 -10 3 -14 -4 -9 -7 4 -10 1 -7 -7 3 -8 11 -13 17 -11 7 1 10 -2 7 -7 -4
-5 0 -12 6 -14 10 -4 10 -6 1 -6 -7 -1 -10 -8 -7 -18 5 -15 4 -16 -5 -3 -8 12
-11 8 -11 -18 0 -20 -4 -31 -10 -27 -5 3 -10 2 -10 -4 0 -5 10 -13 21 -16 17
-6 19 -9 8 -16 -8 -4 -16 -3 -20 3 -4 6 -6 -3 -6 -19 1 -20 7 -29 19 -29 9 0
14 4 12 8 -3 4 2 5 11 2 19 -8 15 -13 -15 -19 -12 -2 -25 -7 -29 -11 -3 -4 1
-5 10 -1 11 3 24 -5 38 -24 12 -16 27 -27 33 -23 7 4 8 3 4 -5 -4 -6 -13 -8
-19 -4 -18 11 -37 12 -37 2 0 -5 7 -9 16 -9 8 0 12 -5 9 -10 -4 -7 -13 -6 -26
1 -33 17 -31 5 2 -13 16 -9 29 -13 29 -8 0 10 26 7 37 -4 4 -4 4 -7 -2 -6 -20
4 -35 0 -35 -10 0 -5 8 -7 18 -3 9 3 14 3 11 -1 -14 -15 -47 -14 -45 1 0 9 -6
18 -14 20 -12 4 -13 3 -1 -5 15 -11 6 -36 -10 -27 -5 4 -9 1 -9 -5 0 -6 6 -10
13 -8 18 3 57 -12 57 -22 0 -5 -5 -12 -12 -16 -6 -4 -8 -3 -5 3 7 11 -22 28
-31 18 -3 -3 0 -5 7 -5 7 0 9 -4 6 -10 -3 -5 -1 -10 4 -10 6 0 11 -9 11 -20 0
-10 8 -24 18 -29 9 -6 12 -11 5 -11 -11 0 -10 -30 2 -49 3 -5 1 -12 -4 -16
-14 -8 -1 -36 13 -28 6 3 8 3 4 -2 -4 -4 -2 -15 4 -24 8 -10 4 -9 -10 3 -12
11 -22 16 -22 11 0 -4 -8 -1 -17 6 -16 13 -17 12 -4 -3 7 -10 17 -16 21 -13
13 8 19 -22 7 -34 -6 -6 -7 -11 -3 -11 5 0 3 -7 -4 -15 -14 -17 -8 -31 9 -21
5 4 8 15 6 26 -2 12 0 18 6 15 5 -4 9 -1 9 6 0 7 3 9 6 6 4 -4 2 -13 -4 -20
-7 -8 -8 -17 -4 -21 4 -4 -6 -18 -22 -31 -22 -17 -25 -23 -11 -22 10 1 20 -4
23 -12 3 -8 0 -11 -7 -7 -7 5 -9 1 -5 -8 3 -9 1 -16 -5 -16 -6 0 -11 -4 -11
-9 0 -6 9 -8 19 -6 29 5 48 -21 33 -45 -7 -12 -8 -21 -2 -25 6 -3 10 -1 10 6
0 7 2 10 5 7 3 -3 3 -13 -1 -22 -6 -15 -7 -15 -19 1 -9 13 -10 22 -2 35 9 13
8 21 -1 30 -9 9 -12 9 -12 -1 0 -7 -4 -10 -9 -6 -5 3 -12 1 -16 -5 -4 -6 -11
-7 -17 -4 -7 4 -8 2 -4 -5 4 -6 13 -8 19 -4 22 13 39 13 28 -1 -16 -19 9 -78
29 -71 13 4 13 4 0 -7 -14 -11 -18 -33 -21 -101 0 -9 -4 -15 -8 -13 -4 3 -7
-8 -7 -24 0 -16 2 -28 5 -27 13 3 51 -15 51 -24 0 -6 -4 -8 -9 -5 -5 4 -11 3
-14 -1 -2 -5 -2 -2 -1 5 2 6 0 12 -5 12 -5 0 -11 -9 -14 -19 -4 -16 0 -18 19
-15 33 6 29 -34 -5 -43 l-25 -6 25 -10 c13 -6 31 -9 39 -8 10 2 9 -2 -5 -13
-11 -8 -16 -16 -11 -16 5 0 3 -6 -3 -14 -10 -11 -8 -17 6 -26 16 -10 16 -11 1
-6 -15 4 -18 -1 -18 -25 0 -18 -4 -28 -10 -24 -5 3 -10 1 -10 -4 0 -6 5 -11
10 -11 6 0 10 -5 10 -11 0 -6 -8 -8 -17 -5 -17 6 -17 5 0 -8 19 -15 23 -31 5
-20 -10 6 -10 4 -2 -7 6 -8 11 -27 12 -44 1 -28 1 -29 -13 -11 -8 11 -15 15
-15 9 0 -7 4 -14 9 -18 6 -3 8 -13 6 -23 -1 -10 4 -26 12 -37 14 -17 15 -18 9
-2 -3 11 -2 16 5 12 5 -4 7 -16 3 -27 -5 -16 -3 -18 7 -12 20 12 40 14 33 3
-3 -5 -9 -7 -14 -4 -5 3 -12 0 -15 -5 -5 -8 -14 -5 -28 7 -15 12 -18 13 -10 2
10 -12 10 -18 0 -29 -10 -12 -9 -12 6 -1 13 10 17 11 17 1 0 -9 4 -10 13 -2
10 9 13 6 13 -13 0 -17 -3 -21 -11 -15 -7 6 -16 6 -20 2 -5 -4 -5 -1 0 6 6 11
3 12 -14 3 -11 -7 -21 -17 -21 -24 0 -8 4 -7 10 3 5 8 12 11 16 7 4 -3 3 -12
-3 -19 -12 -17 -11 -43 2 -43 6 0 19 -6 30 -14 17 -11 17 -12 2 -7 -12 4 -17
2 -14 -6 2 -7 10 -12 16 -10 7 1 10 -2 6 -8 -4 -7 -12 -7 -25 0 -16 8 -18 7
-15 -10 2 -11 0 -22 -5 -25 -9 -6 -8 -24 3 -42 10 -16 -1 -36 -14 -28 -5 4 -5
-4 1 -19 6 -17 5 -26 -3 -30 -7 -3 -3 -4 7 -3 10 1 21 -4 23 -11 3 -8 -2 -10
-14 -6 -10 3 -14 2 -8 -3 12 -9 13 -28 2 -39 -13 -13 -8 -24 12 -24 10 0 21
-6 24 -13 3 -8 -1 -14 -9 -14 -7 0 -11 4 -8 9 3 4 -2 5 -12 1 -14 -5 -13 -8 6
-18 15 -8 19 -15 11 -19 -6 -4 -11 -3 -11 2 0 5 -6 9 -14 9 -9 0 -3 -12 15
-30 28 -27 29 -31 14 -47 -11 -12 -13 -20 -6 -25 8 -4 8 -12 1 -25 -8 -15 -6
-22 7 -30 13 -8 13 -10 3 -7 -9 3 -26 -3 -38 -13 -19 -16 -20 -19 -5 -24 9 -4
18 -4 21 -1 3 3 -1 5 -9 5 -10 1 -8 4 4 11 10 6 21 8 24 5 4 -3 0 -6 -7 -6 -9
0 -7 -5 6 -15 13 -10 14 -13 3 -10 -9 4 -16 0 -16 -7 0 -7 -2 -17 -3 -23 -5
-19 0 -36 8 -31 5 3 9 -1 9 -8 0 -11 -4 -12 -18 -3 -9 6 -16 18 -14 28 2 10
-2 20 -9 22 -14 6 -15 -20 -2 -42 7 -10 3 -12 -15 -6 -28 9 -24 3 10 -15 19
-10 22 -9 16 1 -5 8 -4 10 4 5 6 -4 8 -12 5 -18 -5 -8 -1 -9 12 -5 14 6 13 2
-6 -13 l-25 -21 25 6 c21 5 22 4 7 -5 -9 -6 -27 -9 -40 -6 -12 3 -16 3 -9 0 6
-3 12 -10 12 -15 0 -6 -4 -8 -9 -4 -5 3 -13 0 -17 -6 -4 -8 -3 -9 4 -5 16 10
15 -7 0 -23 -11 -11 -9 -11 9 0 12 7 20 16 17 20 -2 4 0 10 5 13 22 14 21 -16
-1 -35 l-23 -20 23 6 c13 4 22 2 22 -5 0 -6 -4 -8 -10 -5 -14 9 -12 -8 3 -24
8 -10 8 -12 0 -7 -6 3 -14 2 -18 -4 -4 -6 -12 -7 -18 -3 -7 4 -6 0 2 -10 7 -9
21 -17 30 -18 9 0 11 -3 4 -5 -7 -3 -22 0 -34 6 -15 8 -19 9 -15 1 4 -6 2 -11
-5 -11 -7 0 -4 -7 7 -15 18 -13 11 -20 -17 -17 -3 1 -6 -5 -6 -13 0 -12 4 -11
21 1 23 16 40 19 31 5 -3 -6 3 -14 12 -20 10 -6 13 -11 8 -11 -6 0 -16 5 -22
11 -17 17 -34 1 -29 -27 3 -13 2 -24 -2 -24 -4 0 -13 -10 -21 -22 l-13 -21 27
21 c15 12 33 22 39 22 6 0 4 -5 -4 -10 -12 -8 -12 -10 -1 -10 8 0 11 -3 8 -7
-4 -3 1 -16 10 -27 18 -21 18 -21 -2 -5 -11 9 -27 14 -35 12 -13 -4 -13 -3 0
6 8 5 12 12 10 15 -3 2 -16 -4 -29 -15 -13 -10 -18 -19 -12 -19 7 0 9 -5 6
-10 -3 -5 -1 -10 5 -10 7 0 10 7 6 17 -5 16 -4 15 9 -1 8 -10 12 -24 8 -29 -4
-6 0 -8 10 -4 11 4 14 2 10 -9 -4 -11 -9 -12 -19 -3 -8 6 -11 16 -7 22 3 6 1
7 -5 3 -6 -4 -9 -14 -6 -24 5 -14 2 -13 -11 3 -17 20 -17 20 -10 -4 5 -18 4
-22 -5 -16 -9 5 -11 4 -6 -3 5 -8 13 -9 25 -3 10 6 23 6 32 0 10 -6 11 -9 1
-9 -8 0 -10 -5 -6 -12 5 -9 2 -9 -9 1 -12 9 -17 10 -17 2 0 -7 -4 -10 -9 -6
-5 3 -13 0 -17 -6 -5 -8 -3 -9 6 -4 8 5 11 3 8 -6 -3 -8 -10 -14 -16 -14 -5 0
-14 -4 -19 -8 -4 -5 -3 -8 2 -7 24 5 35 -1 35 -21 0 -15 -5 -19 -15 -15 -13 5
-14 2 -4 -17 15 -28 24 -37 16 -15 -7 19 16 42 35 35 9 -4 7 -6 -4 -6 -11 -1
-15 -8 -14 -26 2 -13 -1 -22 -5 -19 -5 3 -9 0 -9 -6 0 -6 -4 -9 -8 -6 -12 7
-38 -12 -29 -21 5 -4 11 -3 15 2 9 13 32 17 32 6 0 -10 -30 -25 -43 -22 -4 1
-3 -8 4 -20 10 -19 9 -21 -7 -15 -18 6 -18 5 -2 -8 20 -15 25 -31 6 -20 -6 4
-8 3 -4 -4 3 -6 -2 -13 -11 -15 -17 -4 -17 -5 0 -6 10 0 15 -5 12 -11 -3 -5
-1 -10 5 -10 6 0 8 -5 5 -10 -4 -6 -10 -8 -15 -5 -5 3 -12 0 -16 -6 -4 -8 -3
-9 4 -5 16 9 15 -7 0 -22 -6 -6 -9 -15 -5 -19 10 -9 32 14 32 34 0 9 6 18 13
20 6 3 12 0 12 -7 0 -6 -4 -8 -10 -5 -5 3 -10 1 -10 -4 0 -6 4 -11 9 -11 5 0
12 -7 15 -16 5 -14 4 -15 -9 -4 -12 10 -15 10 -15 -3 0 -8 6 -18 13 -21 6 -3
2 -3 -10 -1 -25 7 -36 -5 -21 -25 8 -12 8 -11 3 5 -5 15 -3 17 5 9 19 -19 -6
-57 -31 -49 -10 4 -19 2 -19 -3 0 -6 11 -9 24 -8 12 2 31 -3 41 -11 11 -7 14
-13 9 -13 -6 0 -15 5 -21 11 -9 9 -12 7 -10 -10 1 -15 6 -20 17 -16 12 4 11 2
-2 -8 -15 -12 -15 -14 0 -25 14 -9 14 -11 1 -6 -10 3 -16 -1 -16 -11 0 -8 3
-15 7 -15 3 0 6 -15 6 -34 0 -23 -4 -32 -13 -29 -8 3 -11 -3 -8 -18 3 -12 -1
-29 -8 -38 -10 -12 -9 -14 5 -8 10 3 19 3 22 -1 2 -4 -6 -9 -19 -10 -13 -1
-27 3 -30 8 -3 6 -2 10 3 10 5 0 9 6 10 13 0 6 3 23 7 37 4 14 7 30 7 37 1 7
6 10 11 6 5 -3 4 4 -2 14 -6 11 -7 24 -3 29 4 5 1 4 -7 -3 -7 -6 -19 -10 -25
-9 -6 2 -8 1 -3 -1 4 -3 5 -9 1 -14 -3 -5 -1 -9 5 -9 5 0 12 6 14 13 4 9 6 9
6 -1 1 -7 -6 -15 -15 -19 -12 -4 -13 -8 -3 -13 9 -6 8 -12 -4 -25 -19 -18 -23
-30 -7 -20 5 3 10 1 10 -4 0 -6 -8 -11 -17 -11 -10 0 -14 -3 -8 -8 14 -10 20
-66 7 -58 -6 3 -14 1 -18 -5 -4 -7 -3 -9 3 -6 6 4 21 -5 34 -20 l24 -26 -28
18 c-15 10 -30 15 -34 11 -3 -3 -1 -6 6 -6 7 0 9 -5 6 -10 -4 -6 -3 -9 2 -8 4
2 19 -6 33 -16 24 -18 19 -18 -27 1 -7 3 -13 1 -14 -3 -1 -5 -2 -22 -4 -39 -1
-16 -4 -31 -5 -32 -3 -3 -6 -29 -9 -60 -1 -15 -3 -16 -11 -3 -7 12 -9 10 -7
-8 0 -12 5 -22 10 -22 5 0 4 -7 -3 -15 -7 -9 -10 -18 -7 -22 4 -3 -1 -12 -11
-20 -15 -13 -15 -13 5 -3 16 7 23 8 23 0 0 -6 -7 -13 -15 -16 -8 -4 -15 -11
-15 -16 0 -6 6 -5 15 2 13 10 15 9 15 -8 0 -16 -4 -20 -17 -15 -17 6 -17 5 0
-12 14 -14 16 -20 6 -26 -7 -4 -16 -6 -19 -4 -8 5 -6 -32 2 -40 3 -3 11 2 19
12 9 11 10 14 2 9 -8 -4 -13 -2 -13 4 0 7 6 10 14 7 11 -4 13 1 10 19 -2 13 0
24 6 24 6 0 8 -4 5 -10 -3 -5 2 -10 12 -11 17 0 17 -1 0 -8 -10 -4 -18 -10
-18 -14 1 -4 1 -8 0 -9 -1 -2 -2 -18 -4 -36 -2 -28 -1 -31 13 -20 12 10 11 7
-2 -14 -13 -19 -14 -28 -6 -28 9 0 10 -3 1 -13 -7 -9 -7 -17 0 -24 6 -6 5 -10
-5 -10 -9 0 -13 8 -10 24 4 18 1 23 -8 17 -9 -5 -8 -2 1 10 13 15 13 19 0 27
-17 11 -39 12 -24 1 17 -12 17 -35 1 -29 -9 4 -18 2 -21 -4 -4 -5 -3 -9 2 -8
32 6 44 -24 18 -43 -5 -4 1137 -8 2538 -8 1676 0 2546 4 2542 10 -3 6 0 10 7
10 11 0 11 2 0 9 -14 9 -13 32 3 43 5 4 6 11 1 15 -5 4 -11 2 -13 -5 -3 -6 -9
-9 -15 -6 -5 3 -2 14 9 26 10 11 17 22 16 24 -2 2 -3 5 -2 7 6 20 5 36 -1 32
-5 -3 -8 4 -7 15 1 14 6 19 17 15 10 -3 10 -1 -3 9 -14 10 -15 15 -5 19 8 3 8
6 2 6 -6 1 -17 -6 -25 -15 -10 -13 -10 -17 0 -24 8 -4 9 -10 3 -14 -13 -8 -23
19 -15 42 4 9 14 22 22 29 9 6 13 15 8 19 -4 4 -7 2 -7 -5 0 -7 -4 -9 -10 -6
-5 3 -10 13 -10 21 0 8 4 13 9 9 5 -3 12 -1 16 5 10 16 27 0 20 -19 -5 -12 -4
-13 6 -4 17 17 -8 48 -26 33 -9 -8 -15 -8 -20 0 -4 6 -14 9 -22 5 -13 -4 -14
-3 -3 10 10 12 16 13 26 4 10 -8 14 -8 14 0 0 6 -4 11 -10 11 -5 0 -10 5 -10
11 0 5 4 8 8 5 5 -3 8 5 7 17 -2 12 -8 21 -14 19 -14 -3 -14 11 -1 24 7 7 1
10 -15 9 -14 0 -30 -7 -35 -15 -5 -8 -10 -10 -10 -5 0 20 18 38 34 32 8 -3 18
-1 22 5 4 7 3 8 -4 4 -7 -4 -12 -2 -12 4 0 7 -9 9 -22 5 -15 -3 -11 1 10 12
26 15 30 21 20 32 -11 11 -9 12 12 7 24 -6 24 -6 5 6 -22 14 -26 43 -10 68 8
13 7 13 -8 1 -10 -8 -17 -9 -17 -3 0 6 8 16 18 21 9 6 12 11 5 11 -7 0 -11 6
-9 12 1 7 1 10 -1 5 -3 -4 -9 -5 -13 -2 -5 3 -12 0 -16 -6 -4 -7 -3 -9 4 -5
11 7 11 -12 -1 -32 -5 -7 -2 -14 8 -18 12 -5 13 -9 3 -21 -7 -9 -8 -17 -2 -21
5 -4 10 -16 11 -27 1 -11 0 -14 -3 -7 -5 10 -10 9 -21 -5 -13 -17 -13 -16 -4
4 14 28 14 36 0 27 -8 -5 -8 -1 0 14 15 29 14 37 -4 22 -11 -9 -19 -10 -26 -3
-8 8 -6 11 6 10 10 -1 19 6 21 16 1 12 -2 17 -10 14 -7 -3 -13 1 -13 8 0 8 7
11 15 7 10 -3 13 -1 8 6 -3 6 -2 13 4 17 7 4 7 13 0 26 -7 11 -16 17 -23 12
-9 -5 -9 -3 0 9 7 8 10 18 6 22 -13 13 -14 48 -1 43 7 -2 12 -10 10 -16 -1 -7
2 -10 8 -6 16 10 12 23 -10 30 -11 3 -20 11 -20 16 0 6 8 5 21 -1 11 -6 28 -9
37 -7 13 4 12 5 -4 6 -20 1 -65 51 -47 51 5 0 1 5 -7 11 -13 9 -13 10 0 6 8
-2 14 -10 12 -16 -1 -7 2 -10 7 -6 6 3 7 13 4 23 -5 13 -1 12 19 -5 13 -13 28
-23 33 -23 5 0 -1 7 -13 16 -38 26 -46 53 -25 77 10 11 13 17 7 14 -7 -4 -15
0 -18 9 -3 8 -2 13 3 10 5 -3 12 2 17 12 17 39 11 56 -16 42 -13 -7 -21 -7
-26 2 -4 7 -4 10 1 6 4 -4 14 0 20 9 11 14 10 20 -4 30 -14 12 -14 12 3 6 13
-4 17 -3 12 5 -5 8 -2 10 9 5 13 -5 14 -7 3 -14 -10 -7 -10 -9 1 -9 11 0 10
-4 -5 -16 -10 -8 -13 -13 -6 -9 7 4 19 1 27 -5 11 -9 15 -9 15 -1 0 6 -5 11
-10 11 -12 0 -9 22 5 32 6 5 6 8 -2 8 -9 0 -11 19 -3 40 1 3 2 8 1 13 0 4 3 7
9 7 6 0 9 5 8 12 -2 7 4 12 12 13 8 1 13 7 11 15 -7 29 -6 39 4 39 6 1 10 -3
10 -8 0 -5 3 -12 7 -16 13 -13 2 21 -16 48 -17 24 -17 29 -3 50 10 16 12 28 6
40 -7 12 -6 15 4 12 7 -3 13 -16 13 -30 0 -13 -3 -22 -7 -19 -4 2 -10 -3 -13
-12 -4 -10 -2 -13 7 -8 32 19 37 27 26 40 -6 8 -8 14 -5 14 4 0 2 9 -4 20 -6
11 -16 17 -22 14 -7 -4 -8 -3 -4 5 4 6 11 9 16 6 4 -3 10 -2 13 2 2 5 2 3 1
-4 -2 -7 1 -15 5 -18 13 -7 21 20 10 36 -16 25 -9 33 10 11 22 -27 28 -27 28
-4 0 25 -16 42 -35 35 -18 -7 -17 -5 12 17 11 8 17 10 13 4 -4 -7 0 -15 9 -18
21 -8 32 -7 17 2 -6 4 -13 16 -15 27 -1 11 -7 23 -13 27 -5 4 0 6 12 5 18 -1
20 -4 10 -16 -9 -11 -9 -13 0 -8 6 4 14 3 18 -3 3 -5 1 -10 -6 -10 -7 0 -10
-3 -6 -6 11 -11 28 7 19 19 -5 7 -7 23 -5 37 2 14 4 39 5 55 0 19 2 23 5 11 4
-15 7 -16 14 -5 6 10 8 8 6 -9 0 -12 -4 -22 -8 -22 -4 0 -10 -7 -13 -16 -4 -9
-2 -13 5 -8 8 4 9 -1 4 -15 -3 -12 -2 -21 3 -21 6 0 9 12 7 26 -1 15 3 28 12
31 9 4 11 13 7 27 -6 19 -5 19 10 7 14 -12 17 -12 14 -1 -2 8 3 14 11 15 8 0
16 7 18 15 4 13 3 13 -6 0 -6 -8 -11 -11 -11 -6 0 5 -8 2 -17 -5 -15 -12 -16
-12 -10 4 7 19 -9 24 -16 5 -4 -10 -6 -10 -6 -1 -1 16 28 30 56 28 12 -1 20 2
17 7 -3 4 -10 5 -16 2 -7 -4 -8 -2 -4 5 4 6 2 18 -4 26 -9 11 -9 15 -1 15 6 0
11 -5 11 -11 0 -5 5 -7 12 -3 6 4 8 3 4 -4 -9 -16 14 -26 27 -13 9 9 7 10 -8
5 -18 -7 -19 -6 -6 10 8 9 20 15 27 12 9 -3 11 1 7 12 -6 15 -5 16 12 2 17
-13 18 -13 10 0 -17 27 -15 47 2 25 12 -16 14 -16 10 -3 -3 10 -2 20 3 23 4 3
10 0 12 -6 2 -7 8 -6 16 4 11 12 10 15 -5 13 -12 -1 -18 7 -19 22 -1 12 1 20
4 17 3 -3 12 4 20 16 7 11 19 18 25 16 21 -7 47 12 41 31 -4 13 -4 14 4 4 7
-11 10 -11 15 2 4 9 11 16 17 16 6 0 4 -7 -4 -16 -20 -19 -20 -24 0 -24 8 0
13 4 10 9 -3 5 1 12 10 15 22 8 26 8 19 -4 -3 -5 -1 -10 4 -10 6 0 11 6 11 14
0 10 7 13 20 11 13 -3 18 0 14 7 -5 7 0 9 12 6 16 -4 20 0 19 21 0 18 -5 26
-18 25 -9 -1 -14 2 -12 6 6 9 44 9 43 0 -2 -20 5 -20 26 3 20 22 25 24 30 10
4 -9 9 -13 13 -10 3 4 11 3 18 -1 6 -4 3 0 -7 10 -10 9 -18 21 -18 27 0 7 13
-2 29 -18 22 -22 31 -26 35 -16 3 8 14 12 27 10 12 -2 19 -2 15 2 -3 3 -1 11
4 18 7 8 5 12 -5 12 -8 0 -12 -4 -9 -8 2 -4 0 -10 -6 -14 -5 -3 -10 -1 -10 4
0 6 -5 11 -11 11 -5 0 -8 -4 -5 -9 8 -13 -22 -7 -35 6 -8 8 -5 14 12 23 21 10
22 10 7 -3 -10 -8 -15 -17 -11 -20 3 -4 11 -2 18 3 6 5 21 11 33 13 12 2 29
12 37 23 15 18 15 18 8 0 -5 -14 -3 -17 6 -12 7 5 11 17 8 27 -3 11 -1 17 4
13 5 -3 9 -12 9 -20 0 -13 12 -18 33 -15 4 0 7 -5 7 -11 0 -9 4 -8 10 2 13 20
12 30 -1 30 -5 0 -8 -4 -5 -8 3 -5 -1 -9 -9 -9 -8 0 -13 3 -10 5 3 3 -1 12 -8
20 -10 13 -9 14 3 7 21 -13 63 -13 73 0 5 5 5 0 2 -12 -8 -30 10 -30 20 -1 4
13 7 26 6 30 -1 10 28 3 41 -10 20 -20 32 -13 14 7 -13 14 -14 21 -5 27 7 4
10 3 6 -3 -4 -6 0 -16 8 -23 12 -10 13 -16 3 -27 -10 -12 -14 -11 -28 7 -15
20 -17 21 -31 4 -12 -16 -12 -17 3 -11 10 3 20 1 24 -5 4 -6 3 -8 -2 -5 -6 3
-16 2 -23 -3 -8 -4 4 -7 30 -5 24 1 43 7 42 12 -1 6 9 11 22 11 16 0 22 -5 18
-12 -4 -7 -1 -6 8 1 12 10 18 10 27 1 7 -7 12 -10 13 -8 5 31 4 50 -4 50 -6 0
-8 2 -5 5 8 8 38 -6 38 -17 0 -5 -4 -7 -9 -4 -5 4 -4 -5 2 -18 11 -23 12 -24
19 -5 12 31 33 22 30 -12 -1 -3 5 -6 13 -6 11 0 11 4 -1 22 -8 12 -11 25 -7
28 3 4 2 7 -3 7 -6 0 -15 -5 -22 -12 -9 -9 -12 -9 -12 -1 0 7 9 15 20 18 12 4
17 11 14 18 -4 7 -3 8 2 4 9 -9 10 -13 13 -44 1 -17 16 -9 16 10 0 5 7 12 15
14 12 4 12 3 1 -5 -8 -6 -9 -12 -3 -16 5 -3 15 1 22 9 7 8 17 12 24 8 18 -12
30 -10 51 6 18 15 19 15 6 -2 -12 -16 -11 -17 10 -13 13 2 23 9 21 16 -1 6 2
9 7 6 8 -5 8 -14 2 -45 -1 -2 -8 2 -16 9 -9 7 -15 8 -15 2 0 -12 -18 -11 -39
2 -9 6 -12 5 -8 -1 4 -7 -5 -10 -23 -8 -17 1 -30 -1 -30 -6 0 -5 11 -7 25 -5
18 3 25 0 26 -12 0 -15 1 -15 8 1 9 25 15 25 42 2 14 -12 19 -13 11 -4 -11 15
-9 17 17 15 16 -1 33 -5 38 -9 4 -5 2 -7 -6 -5 -7 1 -16 -4 -18 -12 -4 -12 -3
-12 5 -2 5 8 13 13 18 12 16 -3 16 20 0 26 -9 3 -16 10 -16 16 0 5 10 2 22 -6
23 -16 33 -46 17 -46 -6 0 -7 -5 -3 -11 4 -8 9 -7 15 2 4 7 5 17 3 21 -3 4 4
8 15 8 19 0 26 11 22 33 -1 5 3 6 9 2 7 -4 6 -13 -1 -27 -14 -26 6 -42 33 -27
14 7 20 6 24 -5 4 -11 18 -14 50 -11 24 2 42 0 39 -5 -2 -4 8 -6 24 -4 44 5
55 8 62 17 3 5 11 -4 18 -20 6 -15 24 -34 39 -40 l27 -12 -30 24 c-16 13 -27
26 -25 27 3 2 12 9 21 16 13 9 16 9 16 -3 0 -8 -4 -12 -8 -9 -4 2 -10 0 -14
-6 -3 -5 3 -10 13 -10 11 0 23 -7 26 -16 3 -8 11 -12 17 -8 6 3 15 1 19 -7 7
-10 12 -10 23 -1 11 10 17 9 27 -3 7 -8 16 -13 20 -10 4 3 19 -5 34 -16 14
-11 26 -17 26 -14 0 4 8 1 18 -6 15 -13 16 -12 3 4 -13 16 -2 25 13 10 4 -4
19 -8 34 -10 23 -2 24 -1 7 6 -11 5 -24 6 -29 3 -5 -3 -6 1 -1 8 5 8 4 11 -2
7 -6 -4 -19 0 -29 8 -19 15 -19 15 0 8 12 -4 17 -3 13 4 -3 5 0 10 8 10 8 0
12 -4 10 -8 -6 -9 14 -25 42 -33 19 -6 22 -4 17 11 -4 13 -3 15 4 5 5 -8 12
-13 16 -13 21 3 27 -1 22 -14 -3 -8 -9 -23 -12 -32 -5 -16 -4 -16 6 0 11 18
13 18 33 0 16 -13 18 -14 9 -2 -10 14 -10 18 3 23 24 9 55 -11 49 -32 -5 -15
-4 -15 6 1 9 15 14 16 27 6 9 -8 17 -9 21 -3 11 14 66 18 57 4 -6 -9 -2 -9 15
0 18 10 24 9 32 -1 7 -10 8 -8 3 8 -3 12 -1 24 5 28 6 4 9 1 8 -7 -2 -7 4 -13
12 -13 8 0 20 -4 27 -8 6 -4 15 -2 19 4 5 8 3 9 -6 4 -8 -5 -11 -3 -8 6 3 8 9
13 14 12 5 -1 10 10 10 23 1 15 -2 21 -10 17 -6 -4 -5 0 2 9 17 21 16 622 -1
611 -6 -4 -8 0 -4 10 3 9 2 19 -4 22 -5 4 -7 10 -4 15 3 4 -2 13 -10 20 -10 9
-15 9 -15 1 0 -6 6 -11 13 -11 6 0 4 -5 -6 -11 -10 -6 -21 -8 -24 -5 -4 3 -1
6 6 6 9 0 9 5 1 20 -6 11 -15 18 -21 15 -5 -4 -9 -1 -9 4 0 6 4 11 9 11 14 0
7 40 -9 50 -11 7 -11 10 -2 10 7 0 10 5 7 10 -4 6 -11 7 -17 4 -17 -11 14 40
34 54 23 17 14 32 -19 32 l-25 0 23 20 24 21 -25 -13 c-14 -7 -28 -17 -32 -23
-5 -6 -8 -6 -8 2 0 6 5 15 11 18 7 5 5 13 -6 25 -16 17 -16 18 2 15 10 -1 17
-8 15 -14 -1 -6 2 -11 8 -11 5 0 10 7 10 15 0 8 -5 15 -11 15 -5 0 -8 4 -5 9
7 11 -3 41 -13 41 -4 0 -8 -7 -8 -15 0 -8 4 -12 9 -9 4 3 8 0 8 -5 0 -6 -7
-11 -16 -11 -10 0 -14 6 -11 15 7 18 -9 30 -17 13 -3 -7 -3 -2 1 12 5 23 5 24
-13 10 -18 -14 -18 -14 -2 6 14 16 15 23 5 33 -6 6 -12 15 -13 19 -2 21 -17
41 -27 35 -5 -3 -7 -1 -3 5 3 6 2 13 -4 17 -5 3 -10 12 -10 18 0 8 3 8 9 -1 6
-10 12 -7 25 13 9 14 12 24 5 23 -16 -4 -20 33 -6 52 11 13 10 13 -5 1 -17
-12 -23 -9 -19 12 1 5 -3 6 -9 2 -5 -3 -21 5 -34 18 -14 14 -28 22 -32 18 -4
-3 -4 0 0 7 10 16 31 10 31 -9 0 -7 8 -15 18 -17 9 -2 17 1 17 7 0 6 -8 7 -17
4 -16 -6 -17 -5 -3 12 9 11 10 16 3 11 -7 -4 -13 -3 -13 1 0 5 6 15 13 23 10
12 9 12 -5 1 -9 -7 -22 -10 -29 -6 -6 4 -16 1 -21 -6 -8 -12 -9 -11 -5 1 2 8
11 15 20 15 8 0 19 4 24 9 4 5 3 6 -4 2 -7 -4 -13 -2 -13 4 0 7 -8 9 -22 4
-20 -6 -21 -5 -9 9 7 9 17 14 22 11 5 -3 9 0 9 6 0 7 -7 9 -15 6 -38 -15 -50
-18 -36 -8 12 9 12 11 0 15 -8 2 -6 3 3 2 10 -2 21 1 24 6 3 5 -2 9 -10 9 -9
0 -16 5 -16 11 0 5 6 7 13 3 9 -6 9 -5 0 8 -7 8 -9 19 -5 23 4 5 3 6 -3 3 -9
-5 -36 15 -35 27 1 19 -2 22 -16 22 -15 0 -15 -1 0 -12 15 -12 15 -13 0 -19
-23 -9 -31 -7 -14 4 11 7 12 10 2 10 -8 0 -11 7 -8 18 4 10 0 27 -8 37 -10 14
-11 25 -5 38 6 9 6 17 2 16 -4 -1 -15 -1 -23 0 -13 1 -13 2 0 11 8 5 10 10 4
10 -6 0 -24 10 -38 21 -22 17 -25 24 -14 31 10 8 9 9 -4 5 -11 -4 -20 3 -29
25 -12 30 -21 32 -74 14 -11 -4 -5 1 12 11 32 18 32 19 12 31 -18 11 -19 16
-7 30 11 15 11 15 -3 5 -10 -9 -19 -9 -26 -2 -6 6 -10 5 -10 -5 0 -8 4 -13 9
-10 4 3 5 -2 2 -10 -10 -25 -19 -18 -20 15 -2 25 1 30 17 26 11 -3 16 -1 13 5
-3 5 -15 7 -26 5 -14 -4 -18 -1 -14 8 3 9 0 12 -9 8 -8 -3 -13 -9 -10 -13 3
-5 2 -11 -3 -14 -4 -2 -9 5 -9 16 -2 25 -9 32 -23 23 -8 -5 -7 -11 2 -23 12
-15 11 -16 -5 -3 -12 9 -14 17 -7 26 5 6 6 16 2 20 -4 5 5 2 19 -7 14 -9 31
-13 38 -9 9 6 8 10 -6 16 -10 5 -24 7 -32 6 -8 -1 -10 3 -6 11 3 7 -2 3 -13
-9 -24 -27 -29 -28 -29 -8 0 8 5 12 10 8 5 -3 6 3 2 16 -5 17 -3 20 12 14 15
-6 16 -5 3 9 -8 9 -17 12 -18 7 -2 -5 -8 -6 -13 -3 -6 3 -17 0 -26 -8 -10 -7
-14 -8 -10 -1 4 6 1 14 -5 16 -10 4 -10 6 -1 6 14 1 6 31 -9 31 -5 0 -6 -4 -3
-10 3 -6 -1 -7 -10 -4 -9 4 -14 13 -11 20 3 7 1 16 -4 19 -5 3 -7 13 -4 23 5
14 4 14 -4 2 -6 -8 -8 -19 -5 -25 4 -5 -3 -2 -14 8 -11 9 -26 16 -34 14 -8 -2
-11 -2 -6 0 4 3 5 9 2 13 -3 5 0 12 6 16 8 5 9 3 4 -7 -5 -8 -5 -11 0 -7 4 4
13 0 20 -8 10 -14 12 -14 12 -2 0 9 -8 20 -18 26 -14 9 -23 7 -46 -10 -24 -19
-26 -19 -12 -2 9 10 14 26 12 34 -4 12 -3 12 5 1 7 -9 12 -10 16 -2 4 6 2 11
-4 11 -6 0 -8 4 -5 10 3 6 -1 7 -9 4 -9 -3 -16 -14 -16 -24 0 -22 -22 -32 -41
-19 -11 8 -10 9 5 7 13 -2 21 5 26 22 6 21 4 26 -11 26 -12 0 -15 -4 -9 -10 6
-6 10 -15 10 -20 0 -6 -7 0 -16 12 -8 12 -12 27 -8 34 4 6 3 8 -3 5 -12 -8
-46 27 -36 36 3 4 1 7 -5 7 -11 0 -14 -7 -11 -27 1 -5 5 -7 10 -5 14 3 10 -14
-6 -28 -8 -7 -12 -17 -8 -23 3 -6 1 -7 -6 -3 -9 6 -9 11 -1 21 15 18 4 36 -18
29 -10 -4 -13 -3 -6 3 6 4 14 17 18 28 6 17 4 16 -21 -5 -15 -14 -25 -21 -21
-16 4 4 -7 20 -23 34 -23 19 -33 22 -39 13 -5 -9 -10 -10 -14 -2 -4 6 -2 11 4
11 6 0 8 5 5 11 -4 6 -10 8 -13 5 -3 -4 -15 1 -28 9 -18 12 -24 12 -33 1 -6
-7 -7 -17 -3 -21 4 -5 1 -5 -6 -1 -10 6 -10 11 -1 22 9 11 9 18 1 26 -7 7 -12
16 -12 22 0 5 9 0 21 -12 11 -12 25 -19 31 -16 7 5 8 2 3 -6 -5 -9 -4 -11 3
-6 7 4 12 2 12 -5 0 -7 2 -10 5 -7 10 10 -8 39 -21 34 -7 -3 -21 5 -29 17 -16
22 -16 22 -30 3 -8 -11 -24 -20 -35 -21 -16 -1 -17 1 -8 12 9 11 13 12 19 1 6
-9 9 -9 9 -1 0 6 -5 15 -10 18 -6 4 -8 11 -5 16 3 5 -2 6 -11 2 -13 -5 -15 -3
-9 7 6 10 4 10 -11 2 -20 -11 -68 13 -58 29 3 5 -3 6 -12 2 -13 -5 -15 -3 -9
8 5 8 -1 6 -13 -5 -12 -10 -20 -22 -17 -26 2 -4 -1 -7 -8 -7 -7 0 -21 12 -32
26 -15 21 -16 23 -2 12 11 -9 17 -10 17 -2 0 10 -13 15 -32 12 -5 0 -8 4 -8
10 0 6 -7 9 -15 5 -8 -3 -18 2 -23 11 -6 11 -11 12 -16 4 -4 -6 -12 -11 -18
-11 -7 0 -6 5 1 14 8 10 9 16 1 21 -6 4 -9 3 -8 -2 3 -8 -5 -13 -23 -13 -5 0
-7 6 -3 13 4 6 -2 4 -14 -7 -12 -10 -19 -23 -15 -29 3 -6 1 -7 -6 -3 -6 4 -9
11 -7 15 3 4 1 13 -5 21 -7 12 -9 10 -9 -7 0 -12 -4 -25 -10 -28 -5 -3 -7 0
-4 8 3 8 -2 14 -11 14 -8 0 -15 -4 -15 -9 0 -4 -5 -8 -11 -8 -5 0 -7 4 -4 10
3 6 -1 10 -9 10 -9 0 -16 5 -16 12 0 6 3 8 7 5 3 -4 13 -1 21 6 13 10 15 9 10
-4 -4 -9 -1 -16 8 -16 14 0 28 26 19 35 -3 3 -5 -1 -5 -8 0 -9 -6 -7 -21 6
-11 10 -20 14 -19 9 5 -25 -2 -28 -18 -8 -13 17 -20 20 -32 12 -13 -9 -13 -10
1 -6 13 4 16 -1 14 -24 -1 -16 -6 -33 -10 -37 -5 -4 -5 -1 -1 6 4 6 2 12 -4
12 -7 0 -9 7 -6 16 3 8 2 13 -3 10 -5 -3 -11 0 -14 8 -3 8 -19 12 -42 11 -29
-2 -38 2 -46 19 -9 21 -10 21 -5 -1 2 -13 0 -23 -6 -23 -5 0 -6 -5 -3 -11 4
-6 -3 -5 -14 3 -18 11 -23 11 -30 -1 -13 -20 -30 -4 -25 23 2 15 -3 29 -14 37
-15 13 -16 12 -3 -3 11 -15 11 -22 -3 -43 -21 -32 -28 -32 -16 0 10 26 -6 48
-19 26 -4 -6 -15 -9 -23 -6 -9 4 -19 2 -23 -4 -3 -6 -11 -11 -16 -11 -6 0 -8
4 -5 9 9 13 -22 7 -36 -7 -20 -20 -32 -13 -13 8 10 11 13 20 7 20 -6 0 -12 -6
-15 -12 -3 -10 -8 -9 -22 2 -17 13 -18 13 -10 0 5 -8 11 -24 12 -35 2 -15 -1
-14 -12 7 -11 19 -20 25 -32 21 -12 -5 -14 -3 -8 7 5 9 4 11 -4 6 -6 -4 -9
-11 -6 -16 3 -5 1 -11 -5 -15 -7 -4 -7 -13 1 -28 9 -20 9 -20 -4 -4 -8 9 -13
31 -11 47 2 17 -1 30 -7 30 -6 0 -8 -4 -4 -9 3 -5 1 -12 -5 -16 -6 -3 -13 1
-16 10 -6 14 -8 14 -21 -2 -14 -17 -14 -17 -9 2 6 19 5 19 -8 3 -15 -20 -41
-25 -30 -5 4 6 4 9 0 5 -5 -4 -19 -3 -33 3 -15 5 -22 5 -18 0 3 -5 1 -12 -5
-16 -5 -3 -10 0 -10 7 0 8 -3 9 -8 3 -9 -13 -95 -18 -87 -6 3 5 -3 8 -12 6
-10 -1 -23 2 -30 7 -9 7 -11 1 -8 -22 2 -17 7 -35 10 -40 3 -5 1 -12 -5 -15
-6 -4 -10 -3 -9 2 4 24 -2 43 -13 37 -6 -4 -8 -3 -5 3 9 14 -13 31 -35 28 -10
-2 -20 1 -24 6 -3 5 -10 7 -15 3 -6 -4 -6 -11 2 -20 9 -11 15 -11 25 -3 10 8
14 8 14 1 0 -6 -4 -13 -9 -17 -11 -6 -62 15 -73 30 -5 6 -8 6 -8 -2 0 -6 15
-20 32 -32 27 -17 29 -20 11 -18 -12 0 -20 4 -17 8 5 8 -23 22 -48 24 -17 2
-23 -7 -19 -28 1 -5 -3 -6 -8 -3 -6 4 -4 20 5 42 8 20 13 39 10 42 -3 3 -6 -1
-6 -8 0 -14 -14 -5 -16 11 -1 5 -2 14 -3 19 -2 16 -18 12 -18 -5 0 -8 5 -11
10 -8 6 3 7 1 3 -5 -3 -6 -2 -13 3 -17 11 -6 3 -35 -9 -35 -5 0 -7 8 -6 17 2
10 -3 24 -11 31 -11 11 -11 17 -2 28 9 11 8 19 -7 36 -19 21 -19 21 4 9 13 -7
26 -10 30 -7 3 3 0 6 -7 6 -7 0 -9 5 -4 13 13 21 14 49 1 65 -11 14 -10 15 7
8 15 -5 17 -4 8 5 -16 17 -37 1 -22 -17 6 -8 8 -21 4 -31 -5 -10 -7 -22 -6
-27 1 -5 -5 -4 -13 4 -17 13 -22 25 -7 16 5 -3 12 1 15 10 3 8 2 13 -3 10 -5
-3 -15 2 -22 12 -13 16 -13 16 5 2 18 -14 19 -13 13 2 -7 20 1 50 12 43 4 -2
8 2 8 10 0 8 -3 12 -7 10 -3 -2 -14 5 -23 16 -9 10 -13 19 -7 19 5 0 12 -5 15
-10 10 -17 26 0 20 20 -4 12 1 22 12 29 11 6 13 11 5 11 -7 0 -11 4 -8 8 2 4
-5 9 -17 9 -21 2 -21 1 -4 -12 10 -7 14 -16 8 -19 -5 -3 -11 -1 -13 6 -3 9 -6
9 -12 0 -4 -7 -2 -12 3 -12 6 0 11 -5 11 -11 0 -8 -5 -8 -15 1 -8 7 -12 16 -9
21 3 5 0 9 -7 9 -7 0 -4 7 7 16 16 13 16 15 2 10 -25 -7 -22 1 3 15 17 9 20 8
14 -2 -5 -8 -4 -10 4 -5 6 4 9 11 6 16 -3 5 0 10 7 13 7 2 3 2 -9 0 -17 -2
-21 0 -16 13 3 9 6 28 7 43 1 17 6 25 16 23 11 -3 10 2 -4 17 -24 26 -26 26
-21 1 2 -11 0 -20 -5 -20 -17 0 -17 25 1 48 24 31 18 58 -12 54 -19 -2 -21 0
-9 8 11 7 11 10 2 10 -7 0 -10 5 -7 10 7 12 -7 13 -21 3 -5 -5 -3 -1 6 7 17
17 19 28 6 50 -7 12 -7 13 5 2 8 -7 15 -22 15 -32 2 -34 4 -37 19 -37 18 0 28
24 13 33 -7 4 -8 3 -4 -4 4 -7 1 -12 -7 -12 -7 0 -14 7 -14 15 0 8 4 15 9 15
4 0 8 5 8 11 0 5 -4 8 -9 5 -5 -3 -12 1 -15 10 -10 25 -7 27 12 13 15 -13 16
-12 3 4 -9 11 -21 15 -35 12 -15 -5 -17 -4 -7 3 8 6 11 17 8 27 -4 9 -3 14 3
10 6 -3 10 -1 10 5 0 6 5 8 11 4 8 -4 8 0 0 15 -14 25 -23 28 -15 4 5 -14 4
-15 -4 -4 -8 11 -10 11 -15 0 -3 -9 -6 -10 -6 -2 -1 6 4 15 9 18 7 4 7 13 0
26 -8 15 -7 23 5 35 14 15 15 14 11 -12 -5 -27 6 -44 29 -44 6 1 3 5 -7 10
-19 12 -17 46 3 42 8 -1 2 7 -14 19 -15 11 -24 25 -21 31 4 6 10 5 15 -3 6 -9
9 -10 9 -2 0 6 -7 19 -17 28 -12 13 -13 19 -4 25 9 5 8 9 -4 14 -14 5 -15 9
-5 21 17 21 6 29 -20 15 -11 -6 -26 -9 -33 -6 -7 2 -6 5 4 5 8 1 25 12 37 26
26 30 17 33 -13 5 -17 -16 -22 -17 -22 -6 0 8 5 12 10 9 6 -4 8 1 4 11 -4 10
-3 15 3 11 6 -3 10 -1 10 5 0 6 6 8 13 4 9 -5 9 -4 0 6 -6 7 -9 19 -6 26 6 17
-13 19 -23 2 -4 -6 -3 -8 3 -5 5 3 10 0 10 -7 0 -8 -6 -12 -14 -9 -7 3 -13 9
-13 15 0 5 -4 7 -8 4 -5 -3 -9 1 -9 9 0 10 4 11 11 6 7 -6 19 -4 31 6 20 15
20 15 -1 9 -14 -4 -28 0 -40 11 -11 10 -15 15 -10 11 16 -12 28 -9 19 5 -4 6
-9 21 -11 32 -3 19 -2 19 12 0 8 -11 12 -28 10 -38 -3 -16 -1 -17 12 -7 10 10
11 16 3 26 -6 7 -7 19 -3 25 4 7 3 9 -3 6 -6 -4 -14 0 -17 9 -9 24 -7 28 7 15
10 -8 14 -7 14 4 0 8 -4 12 -9 9 -4 -3 -8 0 -8 5 0 6 5 11 11 11 5 0 7 5 3 11
-5 8 -9 8 -14 -1 -5 -8 -10 -9 -14 -2 -3 6 -2 13 4 17 7 4 7 13 0 26 -12 22
-4 43 12 33 7 -4 8 -2 4 5 -5 8 -16 5 -39 -11 -17 -12 -27 -16 -22 -8 6 10 4
12 -11 7 -16 -6 -17 -5 -4 5 9 7 15 19 14 26 -1 6 -2 16 -3 21 0 5 -9 11 -19
13 -10 3 -19 12 -19 21 0 9 4 14 9 11 5 -3 6 -9 3 -14 -3 -4 4 -10 15 -13 11
-3 20 0 20 5 0 6 6 5 15 -2 10 -9 15 -9 15 -1 0 6 -5 11 -11 11 -8 0 -7 6 2
18 12 15 12 16 -2 5 -9 -7 -20 -9 -24 -5 -5 4 -5 0 -1 -8 4 -8 -1 -5 -12 7
-11 12 -22 20 -24 18 -3 -3 -5 2 -5 10 0 8 3 15 7 15 3 0 6 9 7 20 1 13 -2 18
-9 14 -7 -4 -8 -2 -4 5 12 19 26 1 21 -27 -2 -15 0 -34 5 -42 7 -11 10 -11 10
-2 0 8 5 10 13 6 8 -6 8 -3 -1 9 -8 9 -11 20 -8 25 8 13 -24 54 -39 48 -8 -3
-12 2 -10 12 1 9 0 22 -4 27 -6 10 -7 16 -10 36 0 5 -5 8 -9 5 -4 -2 -9 4 -9
15 -1 10 3 19 8 19 6 0 8 -4 4 -9 -9 -15 15 -25 28 -12 9 9 7 10 -8 5 -16 -6
-18 -5 -9 7 13 16 15 51 3 43 -5 -2 -6 -12 -3 -22 4 -11 -2 -8 -16 8 -16 18
-20 20 -16 7 3 -11 2 -16 -4 -12 -6 3 -10 1 -10 -6 0 -7 -3 -9 -6 -6 -4 4 1
18 10 31 9 15 12 27 6 31 -6 3 -10 2 -10 -3 0 -5 -7 -9 -16 -9 -12 0 -10 5 7
18 22 16 38 66 17 53 -4 -3 -6 -9 -3 -14 3 -4 -1 -13 -9 -19 -10 -9 -17 -7
-27 6 -13 16 -12 17 3 5 11 -9 18 -10 23 -2 3 5 0 10 -7 10 -7 1 -3 9 11 20
28 24 15 26 -19 3 l-25 -16 24 26 c14 15 19 27 13 27 -6 0 -14 -5 -17 -10 -4
-6 -11 -8 -16 -4 -6 4 -6 11 2 20 11 13 6 18 -14 15 -5 -1 -6 3 -3 8 4 5 0 12
-6 14 -10 4 -10 6 -1 6 7 1 10 8 7 16 -4 8 -10 12 -15 9 -5 -3 -9 -1 -9 5 0 5
4 12 9 16 9 5 27 -32 23 -48 -1 -5 2 -6 7 -2 6 3 7 13 4 22 -4 10 -2 14 4 10
5 -3 10 0 10 8 0 8 -3 12 -7 10 -3 -2 -12 0 -20 5 -13 8 -13 13 -2 31 8 11 9
18 3 15 -5 -4 -12 -2 -16 4 -3 5 -1 10 4 10 6 0 3 8 -6 18 -17 17 -19 17 -28
1 -9 -15 -11 -16 -25 -1 -13 14 -12 15 3 9 13 -5 17 -1 17 14 0 17 3 18 23 9
20 -10 20 -10 5 3 -10 8 -14 17 -10 22 4 4 -3 2 -15 -6 -12 -7 -19 -17 -16
-23 3 -5 1 -6 -5 -2 -6 4 -8 14 -5 23 5 12 3 14 -8 8 -8 -4 -11 -5 -7 0 4 4 2
17 -4 29 -12 21 -14 27 -17 47 0 5 -6 7 -12 3 -8 -4 -8 0 0 15 13 24 23 28 15
6 -4 -8 -1 -15 6 -15 6 0 9 -4 5 -9 -3 -5 -1 -12 5 -16 6 -4 7 -11 4 -17 -4
-6 -2 -8 3 -5 6 4 14 0 17 -9 4 -10 2 -13 -6 -8 -7 4 -8 3 -4 -4 4 -7 11 -12
17 -12 14 0 11 26 -6 40 -17 14 -10 34 8 24 7 -4 8 -3 4 2 -5 5 -14 9 -20 9
-7 0 -12 5 -12 10 0 6 -3 15 -6 20 -4 6 -5 18 -4 28 2 9 -1 15 -6 11 -5 -3 -7
-9 -4 -14 3 -5 -3 -14 -14 -19 -25 -14 -42 -14 -18 0 21 12 22 26 2 26 -8 0
-15 -4 -15 -9 0 -5 -5 -6 -11 -2 -8 4 -7 9 2 15 7 4 16 6 20 3 4 -2 7 5 6 16
-1 20 -17 29 -17 10 0 -5 -5 -10 -11 -10 -8 0 -8 4 0 14 8 10 9 16 1 21 -5 3
-10 1 -10 -5 0 -6 -5 -8 -10 -5 -6 4 -4 12 5 21 8 9 13 20 10 25 -4 5 0 9 7 9
9 0 9 3 -2 10 -8 5 -19 10 -25 10 -5 0 -3 -5 5 -10 10 -6 11 -10 3 -10 -7 0
-13 -5 -13 -11 0 -5 5 -7 12 -3 7 4 8 3 4 -4 -4 -6 -13 -9 -22 -5 -11 4 -12 9
-3 19 14 17 -2 18 -21 2 -12 -11 -12 -10 -2 3 6 9 8 20 4 24 -4 5 -1 5 6 1 6
-4 16 -5 22 -1 11 7 2 35 -12 35 -6 0 -5 -6 2 -15 11 -13 9 -14 -16 0 -16 8
-29 18 -29 22 0 5 -4 14 -8 21 -5 7 -4 12 3 12 6 0 8 5 5 10 -4 6 -10 8 -14 6
-11 -7 -10 27 2 42 5 6 6 12 1 12 -4 0 1 7 12 16 14 12 15 14 3 11 -21 -7 -39
11 -32 29 3 8 0 14 -7 14 -7 0 -9 9 -6 23 l6 22 -11 -22 c-7 -13 -16 -23 -21
-23 -5 0 -6 5 -3 10 3 6 2 10 -4 10 -5 0 -20 14 -32 32 -13 17 -18 28 -11 24
7 -4 12 -1 12 8 0 9 6 16 13 16 9 0 9 2 -1 9 -7 4 -14 17 -15 29 0 11 -4 19
-7 17 -3 -2 -12 1 -20 6 -12 7 -13 11 -2 18 11 7 10 9 -3 14 -10 5 -14 3 -9
-4 4 -7 1 -10 -7 -7 -17 6 -19 30 -4 40 9 7 1 10 -21 7 -3 0 -12 8 -20 18 -13
17 -14 17 -7 -1 4 -13 3 -17 -5 -12 -13 8 -16 32 -4 39 4 2 2 3 -5 1 -6 -1
-14 0 -17 4 -12 11 -36 11 -29 -1 3 -7 3 -9 -2 -5 -4 4 -17 3 -29 -3 -18 -9
-19 -8 -5 3 17 14 22 48 6 48 -5 0 -6 -7 -3 -16 3 -8 2 -12 -4 -9 -6 3 -10 2
-10 -2 0 -5 -6 -17 -13 -27 -12 -16 -14 -16 -14 -2 0 9 4 16 9 16 15 0 8 15
-13 28 -19 12 -20 11 -15 -6 4 -13 1 -22 -8 -25 -23 -9 -29 10 -11 36 13 20
13 24 1 24 -9 0 -12 -6 -8 -16 5 -14 4 -14 -13 -1 -11 9 -16 10 -11 3 4 -7 2
-13 -4 -13 -6 0 -15 -10 -20 -22 -7 -18 -9 -19 -9 -5 -1 24 -18 21 -24 -5 -5
-17 -9 -19 -20 -10 -8 7 -17 8 -22 4 -4 -4 -3 3 4 15 7 14 17 20 26 17 23 -9
18 4 -7 17 -13 6 -20 8 -16 5 10 -12 -23 -45 -39 -39 -8 3 -11 0 -8 -9 4 -9 0
-15 -10 -15 -14 0 -13 3 1 25 8 13 13 26 10 30 -3 3 -6 -1 -6 -8 0 -9 -5 -7
-16 6 -15 18 -15 18 -5 -3 7 -14 8 -24 1 -28 -5 -3 -10 2 -11 12 0 16 -1 16
-9 -2 -11 -26 -12 -37 -2 -31 5 3 9 -1 9 -9 0 -13 -3 -13 -17 0 -22 20 -36 19
-20 0 7 -9 10 -18 6 -22 -3 -3 -6 -1 -6 6 0 7 -4 10 -9 7 -5 -4 -8 0 -7 6 3
20 17 39 25 34 4 -3 7 5 8 17 0 12 -1 16 -4 9 -3 -6 -9 -10 -14 -6 -5 3 -8 2
-7 -3 2 -4 -2 -8 -7 -8 -5 0 -9 4 -7 8 1 5 -2 6 -8 2 -8 -5 -7 -12 2 -23 11
-13 10 -15 -4 -9 -10 3 -20 2 -23 -3 -3 -5 -14 -9 -25 -9 -11 -1 -29 -1 -40
-2 -11 0 -22 -4 -24 -8 -7 -11 48 -7 56 4 5 6 8 3 8 -6 0 -20 -24 -31 -37 -18
-12 12 -45 0 -36 -14 4 -6 1 -7 -7 -2 -7 4 -16 2 -21 -6 -6 -9 -9 -10 -9 -2 0
7 7 16 16 21 14 8 14 10 -1 22 -8 7 -18 10 -22 6 -3 -3 -1 -6 5 -6 7 0 12 -4
12 -9 0 -5 -8 -8 -17 -6 -10 1 -31 -4 -46 -12 -24 -12 -31 -12 -45 -1 -16 12
-16 11 -2 -6 14 -18 13 -19 -3 -13 -10 4 -16 3 -12 -3 3 -5 -4 -8 -15 -7 -11
1 -20 5 -20 10 0 4 -5 5 -11 2 -6 -5 -4 -12 8 -21 10 -7 14 -14 10 -14 -4 0
-3 -9 3 -19 7 -14 7 -22 0 -26 -6 -4 -10 -3 -9 2 4 25 -1 35 -14 24 -10 -7
-17 -7 -24 0 -8 8 -13 8 -17 0 -4 -6 -2 -11 3 -11 6 0 11 -5 11 -11 0 -8 -5
-7 -16 2 -13 10 -17 10 -24 0 -6 -11 -9 -11 -13 0 -4 10 -6 9 -6 -3 -1 -24
-17 -23 -17 1 0 10 7 18 16 18 32 0 41 3 36 12 -3 5 8 7 24 6 17 -1 33 2 37 8
3 5 1 7 -5 3 -6 -3 -14 -2 -17 4 -5 8 -11 7 -21 -1 -8 -6 -14 -8 -14 -3 0 5
-7 1 -14 -9 -19 -24 -20 -24 -41 -7 -11 8 -16 10 -12 4 8 -15 -17 -25 -40 -18
-14 4 -15 3 -5 -4 11 -7 11 -10 -2 -15 -9 -4 -20 1 -26 11 -9 14 -10 14 -5 -5
7 -24 -9 -32 -19 -10 -3 6 -4 3 -3 -8 1 -15 -4 -20 -23 -19 -13 1 -30 -5 -38
-12 -18 -19 -38 -18 -23 0 9 11 9 16 0 22 -7 4 -9 3 -5 -4 3 -6 2 -13 -4 -17
-6 -4 -8 -11 -5 -16 4 -5 2 -9 -4 -9 -5 0 -11 3 -14 8 -2 4 -2 1 -1 -5 4 -16
2 -16 -30 -3 -24 9 -25 8 -16 -15 7 -18 5 -27 -7 -37 -12 -9 -15 -10 -9 0 4 6
3 12 -3 12 -5 0 -11 -8 -13 -17 -3 -15 -5 -14 -10 3 -5 19 -2 22 19 19 13 -1
21 0 18 4 -12 11 -64 8 -57 -3 13 -22 12 -46 -3 -46 -8 0 -15 5 -15 11 0 5 4
7 10 4 6 -3 7 1 4 10 -7 17 -30 14 -27 -4 2 -6 -3 -11 -10 -11 -8 0 -7 -4 3
-11 12 -9 12 -10 -3 -5 -10 3 -21 6 -24 6 -3 0 0 6 6 14 9 11 9 16 0 22 -7 4
-9 3 -6 -3 4 -6 0 -16 -8 -23 -8 -7 -15 -10 -15 -6 0 4 -10 0 -23 -9 -13 -8
-26 -13 -29 -10 -2 3 -5 -2 -5 -10 0 -11 4 -12 13 -4 7 6 19 7 25 3 8 -5 10
-3 4 7 -5 8 -5 11 0 7 4 -4 13 -4 19 1 7 6 16 4 24 -5 11 -12 9 -13 -10 -11
-19 2 -23 -3 -22 -25 0 -15 -4 -24 -8 -22 -5 3 -7 13 -6 21 2 9 -3 18 -10 20
-7 3 -12 1 -11 -4 5 -30 -3 -35 -20 -10 -14 22 -20 25 -24 13 -4 -9 1 -20 11
-25 23 -14 6 -14 -19 -1 -11 7 -19 7 -19 1 0 -5 6 -12 13 -14 9 -4 9 -6 -1 -6
-8 -1 -10 -6 -6 -13 5 -8 0 -7 -11 2 -17 14 -18 13 -11 -5 5 -15 4 -17 -5 -8
-14 14 -2 36 14 26 8 -5 8 -2 0 9 -7 8 -10 18 -6 21 3 4 1 7 -6 7 -8 0 -11 -7
-7 -15 6 -17 -22 -35 -44 -27 -8 2 -12 1 -8 -3 4 -5 2 -15 -5 -23 -9 -12 -5
-11 18 2 l30 18 -22 -20 c-12 -11 -19 -23 -15 -28 4 -5 0 -3 -9 4 -9 6 -19 8
-24 4 -4 -4 -3 3 4 15 15 29 14 37 -3 21 -16 -16 -15 -36 5 -50 11 -7 9 -8 -6
-3 -11 3 -24 7 -30 8 -5 1 -14 7 -18 12 -5 6 -6 0 -2 -12 4 -15 0 -26 -15 -36
-11 -7 -17 -17 -14 -20 4 -4 -3 -5 -14 -2 -12 2 -24 0 -27 -6 -4 -5 -12 -9
-18 -9 -8 0 -7 4 2 9 8 5 16 17 17 25 1 9 -2 14 -7 10 -5 -3 -6 -10 -3 -16 5
-7 1 -9 -9 -5 -8 3 -21 -1 -28 -9 -9 -11 -15 -12 -28 -2 -9 7 -13 8 -9 4 4 -5
0 -15 -9 -21 -15 -11 -13 -12 11 -10 16 2 32 9 36 15 4 7 7 1 8 -14 0 -15 -4
-29 -9 -32 -5 -3 -6 2 -3 10 3 9 1 16 -5 16 -11 0 -15 -12 -12 -40 2 -13 1
-13 -8 0 -5 8 -7 18 -5 22 3 4 -2 8 -10 8 -8 0 -18 -5 -21 -10 -4 -6 -11 -7
-17 -4 -6 4 -5 10 3 15 8 5 9 9 3 9 -18 0 -24 -13 -13 -27 10 -11 15 -11 27
-1 13 10 14 10 8 1 -4 -8 -2 -13 4 -13 6 0 8 -5 4 -11 -4 -8 -9 -7 -15 2 -5 8
-9 10 -9 6 0 -4 -10 -2 -22 4 -22 12 -22 11 -8 -6 11 -14 12 -19 2 -22 -6 -3
-9 -9 -6 -15 3 -5 -3 -4 -15 3 -11 8 -22 18 -24 24 -2 5 -3 2 -1 -8 2 -13 -2
-17 -12 -13 -9 3 -12 1 -9 -4 3 -6 2 -10 -4 -10 -5 0 -11 6 -14 13 -3 6 -3 -7
-2 -31 3 -30 0 -42 -8 -39 -17 6 -68 -25 -63 -39 6 -16 -5 -26 -18 -15 -6 4
-19 11 -28 14 -12 4 -15 2 -11 -10 5 -13 3 -14 -15 -4 -17 9 -23 8 -31 -7 -11
-21 5 -56 22 -46 8 5 7 2 -1 -7 -11 -12 -14 -12 -21 0 -6 9 -11 10 -15 2 -4
-6 -12 -8 -18 -5 -7 5 -9 2 -6 -8 4 -8 1 -15 -7 -15 -7 0 -11 7 -8 16 3 11 0
10 -13 -4 -13 -16 -15 -16 -11 -3 3 9 1 19 -6 22 -9 3 -8 5 1 5 7 1 10 6 7 11
-5 8 -11 7 -21 -1 -10 -8 -14 -8 -14 0 0 10 12 15 31 13 3 -1 6 9 5 21 -1 12
-8 21 -15 19 -7 -1 -11 3 -8 10 2 7 10 12 16 10 7 -1 5 8 -5 23 -15 23 -33 37
-19 16 3 -5 0 -13 -6 -17 -8 -5 -10 1 -7 20 5 26 5 26 -18 11 -13 -8 -24 -13
-24 -10 0 10 39 43 44 38 3 -4 6 -1 6 5 0 7 -5 12 -11 12 -5 0 -8 4 -5 8 3 5
-1 9 -8 9 -7 0 -13 -6 -13 -13 0 -7 4 -11 9 -8 15 9 8 -3 -9 -17 -11 -10 -14
-10 -9 -1 4 7 2 12 -6 12 -10 0 -10 2 0 9 8 4 13 11 13 15 -3 20 0 26 11 20 6
-4 8 -3 4 4 -3 5 0 13 6 16 7 3 4 4 -6 3 -10 -1 -21 4 -24 12 -3 9 0 11 8 6 9
-6 9 -3 1 13 -8 15 -8 22 2 25 6 3 3 5 -9 4 -11 -1 -21 -7 -21 -14 0 -6 4 -10
9 -7 4 3 8 1 8 -5 0 -19 -16 -20 -28 -1 -7 12 -8 21 -2 25 6 3 10 11 10 16 0
6 -6 7 -12 2 -19 -11 -38 -12 -38 -2 0 6 8 9 18 7 12 -2 16 3 15 17 -1 11 4
23 10 27 6 4 0 9 -16 13 -15 4 -27 11 -27 16 0 12 17 11 25 -1 8 -13 25 -13
25 0 0 5 -5 9 -11 7 -16 -3 -20 34 -6 53 11 13 10 13 -6 1 -11 -9 -17 -10 -17
-2 0 6 -4 11 -8 11 -5 0 -9 -7 -9 -15 0 -8 4 -12 9 -9 14 9 9 -13 -7 -26 -8
-7 -12 -17 -8 -24 3 -6 2 -7 -2 -3 -12 10 -15 38 -4 31 5 -3 9 0 9 5 0 6 -6
11 -12 11 -10 0 -10 2 0 9 8 4 13 11 13 15 -1 3 -1 7 0 9 8 26 7 52 -2 63 -12
15 -33 9 -23 -7 3 -5 10 -7 15 -4 5 4 9 -1 9 -9 0 -21 -28 -9 -35 14 -4 12
-12 17 -23 14 -15 -5 -15 -4 0 6 17 10 17 13 -4 40 -11 16 -25 27 -30 24 -4
-3 -8 0 -8 5 0 6 8 11 18 11 13 1 11 6 -12 26 -23 20 -26 28 -16 37 10 9 11 9
5 -2 -6 -10 -4 -12 5 -6 9 6 11 4 5 -5 -6 -9 -4 -11 5 -5 9 6 11 4 5 -5 -6 -9
-4 -11 5 -5 9 6 11 4 5 -5 -5 -9 -4 -11 3 -6 9 5 8 12 0 26 -17 26 -37 33 -56
18 -13 -11 -14 -10 -4 7 6 11 13 28 16 38 3 10 10 15 16 12 16 -10 11 1 -7 16
-9 8 -14 9 -11 4 4 -6 0 -18 -7 -28 -11 -16 -13 -16 -19 -2 -3 9 -2 13 4 10 6
-3 10 -1 10 4 0 6 -4 11 -10 11 -5 0 -10 5 -10 11 0 5 4 8 9 4 5 -3 13 0 17 6
4 8 3 9 -4 5 -11 -7 -17 6 -13 27 1 5 -3 6 -9 2 -5 -3 -10 -1 -10 5 0 6 -5 8
-11 5 -6 -5 -4 -12 8 -20 10 -7 15 -17 10 -21 -4 -4 -7 -2 -7 5 0 7 -5 9 -10
6 -10 -6 -14 8 -10 35 1 11 -4 10 -21 -5 l-23 -20 22 29 c21 27 21 46 1 46 -5
0 -9 -5 -9 -11 0 -5 6 -7 13 -3 6 4 4 -1 -5 -12 -14 -15 -20 -16 -30 -5 -11
10 -9 11 6 5 16 -6 17 -5 6 16 -8 15 -8 20 -1 16 6 -4 11 -2 11 4 0 6 4 9 9 6
11 -7 9 13 -2 32 -5 7 -13 10 -18 6 -6 -4 -6 -11 2 -20 8 -10 8 -14 0 -14 -12
0 -13 5 -15 58 -1 21 -8 37 -19 44 -15 8 -16 12 -5 26 8 10 9 13 1 9 -6 -4
-14 -3 -18 3 -4 6 -11 8 -16 4 -5 -3 -7 -10 -3 -15 3 -5 9 -7 14 -4 5 3 7 -4
5 -15 -2 -11 0 -18 4 -15 11 6 28 -16 28 -36 0 -9 -6 -16 -14 -16 -9 0 -10 4
-2 13 7 9 5 15 -9 23 -11 6 -23 7 -28 3 -5 -4 -3 0 4 10 9 11 10 18 2 23 -5 3
-10 1 -10 -4 0 -6 -5 -11 -11 -11 -8 0 -8 4 -2 13 6 6 9 23 7 37 -3 14 -5 30
-6 37 -1 7 -5 10 -10 7 -4 -3 -4 -13 2 -23 10 -19 4 -31 -14 -31 -6 0 -4 5 4
10 8 5 10 10 4 10 -14 0 -14 31 -1 48 7 9 7 16 -1 24 -14 14 -36 0 -23 -16 7
-8 5 -12 -9 -13 -10 -1 -24 5 -31 13 -7 8 -8 14 -3 13 21 -4 34 2 34 16 0 8
-4 15 -10 15 -5 0 -10 5 -10 11 0 5 5 7 11 4 6 -4 5 2 -3 14 -15 24 -24 26
-34 9 -4 -6 -3 -8 3 -5 5 3 10 1 10 -6 0 -7 4 -20 8 -29 4 -11 3 -18 -5 -18
-6 0 -8 5 -5 10 6 9 -8 14 -27 11 -5 0 -8 4 -8 10 0 6 7 8 16 5 14 -5 15 -4 4
9 -7 8 -9 15 -4 15 5 0 1 7 -10 15 -14 11 -24 12 -40 3 -16 -8 -18 -8 -10 1
16 17 46 21 62 8 9 -7 16 -7 23 0 8 8 7 13 -2 18 -8 5 -10 4 -5 -3 4 -7 3 -12
-3 -12 -5 0 -13 5 -16 10 -4 6 -10 8 -15 5 -4 -3 -11 2 -14 11 -5 12 -2 15 9
10 9 -3 13 -2 10 4 -10 16 -38 12 -32 -5 4 -8 1 -17 -5 -21 -6 -4 -8 -3 -4 4
3 5 0 12 -6 15 -10 3 -10 7 0 19 10 13 10 17 -4 22 -23 9 -31 7 -14 -4 8 -5
10 -10 5 -10 -21 0 -54 31 -52 49 1 11 4 19 7 19 18 -2 30 3 30 13 0 8 -4 8
-14 0 -10 -8 -16 -9 -21 -1 -3 5 0 10 7 10 7 0 -1 9 -18 19 -18 11 -35 24 -38
30 -11 16 -26 13 -26 -5 0 -10 5 -14 16 -10 10 4 13 2 8 -6 -5 -7 -3 -8 6 -3
9 6 11 4 5 -5 -5 -8 -4 -11 1 -7 6 3 15 -3 22 -14 8 -12 9 -19 1 -19 -5 0 -7
-5 -3 -12 4 -7 3 -8 -4 -4 -6 4 -9 12 -6 19 4 11 -56 56 -64 48 -2 -1 -7 1
-10 5 -4 4 -1 4 6 0 7 -4 12 -1 12 8 0 8 -6 16 -12 19 -10 3 -10 7 1 20 12 15
11 17 -10 15 -20 -3 -24 2 -25 27 -1 17 -3 32 -4 35 -1 3 -2 8 -1 12 0 4 -7 4
-17 1 -15 -6 -16 -5 -2 13 13 17 13 18 0 8 -32 -23 -46 -23 -48 2 -1 13 3 24
9 24 5 0 7 5 3 11 -4 8 -12 3 -21 -12 l-14 -24 4 28 c4 27 4 27 -21 11 -13 -9
-21 -11 -18 -5 6 10 -13 16 -36 12 -15 -2 -8 14 12 26 14 9 21 10 26 1 4 -6 3
-8 -4 -4 -6 3 -14 1 -18 -5 -5 -9 0 -10 14 -7 14 4 20 2 15 -4 -3 -7 -1 -8 5
-4 9 5 7 14 -5 31 -17 22 -19 22 -37 7 -18 -16 -18 -16 -7 5 10 21 8 26 -24
54 -19 17 -33 35 -30 39 3 4 -1 10 -8 13 -7 3 -13 -3 -13 -13 0 -10 4 -16 8
-14 4 3 5 -2 2 -10 -8 -20 -26 -10 -22 11 2 9 -3 18 -11 21 -9 3 -11 0 -6 -8
5 -8 4 -11 -3 -6 -5 3 -13 0 -15 -6 -4 -9 -6 -10 -6 -1 -1 6 7 18 17 25 9 7
18 20 20 28 2 13 1 13 -10 0 -7 -8 -22 -22 -33 -30 -18 -15 -19 -14 -3 9 16
23 14 56 -2 46 -5 -3 -15 4 -24 16 -8 12 -19 18 -25 15 -5 -4 -26 5 -46 18
-19 14 -41 26 -48 29 -8 2 -6 12 7 33 14 21 15 26 4 16 -18 -15 -27 -6 -22 22
2 13 0 16 -8 8 -8 -8 -14 -7 -23 4 -9 13 -11 13 -11 -5 0 -11 5 -17 10 -14 5
4 6 1 1 -7 -6 -9 -4 -11 5 -5 9 6 11 4 5 -5 -6 -9 -4 -11 5 -5 9 6 11 4 5 -5
-6 -9 -4 -11 6 -5 11 6 12 5 2 -5 -10 -11 -16 -9 -34 13 -11 15 -25 24 -31 21
-7 -4 -8 -2 -4 5 4 6 12 9 17 6 5 -4 4 5 -2 18 -6 14 -30 35 -53 47 -53 29
-77 50 -70 61 3 5 10 6 16 3 7 -5 8 -2 3 5 -5 9 -10 10 -18 2 -14 -14 -30 -14
-22 -1 4 6 3 10 -2 9 -21 -4 -34 2 -27 13 4 6 3 8 -4 4 -6 -3 -15 1 -20 10 -8
15 -10 15 -15 0 -5 -11 -3 -15 5 -10 7 5 8 3 3 -6 -6 -9 -4 -11 5 -5 9 6 11 4
5 -5 -5 -9 -4 -11 3 -6 7 4 12 2 12 -4 0 -6 4 -9 9 -5 17 10 20 -10 4 -30 -11
-14 -14 -15 -10 -3 8 22 -3 30 -21 15 -13 -10 -14 -9 -8 1 8 14 -11 45 -24 37
-7 -4 -21 17 -24 35 -2 14 -43 57 -59 63 -10 4 -15 11 -12 17 3 5 1 10 -4 10
-14 0 -13 -11 3 -32 7 -10 17 -14 21 -10 5 4 5 1 0 -7 -5 -9 -4 -12 3 -7 6 3
13 2 17 -4 3 -5 0 -10 -8 -10 -19 0 -70 56 -62 69 4 7 1 10 -7 9 -7 -2 -12 2
-11 7 1 6 -15 11 -34 12 -30 2 -40 -9 -12 -13 5 -1 11 -3 14 -4 3 -1 10 -3 15
-4 15 -2 12 -21 -2 -22 -7 0 -19 5 -27 10 -8 6 -17 10 -20 9 -9 -4 -9 20 0 32
4 6 1 16 -7 23 -8 7 -14 8 -14 2 0 -5 -5 -10 -11 -10 -5 0 -8 4 -5 9 7 11 -14
20 -32 14 -6 -3 -9 -10 -5 -16 4 -7 -1 -5 -12 3 -10 8 -27 15 -38 15 -11 0
-23 10 -28 23 -5 13 -5 21 -1 18 4 -2 8 5 9 17 0 12 -1 17 -4 10 -3 -8 -12 -5
-26 10 -12 13 -16 15 -9 6 8 -10 11 -23 6 -30 -5 -8 -3 -10 5 -4 10 6 11 3 2
-14 -13 -23 -26 -27 -36 -11 -4 6 1 7 11 3 12 -4 15 -2 12 8 -3 8 -14 13 -24
11 -15 -2 -16 -1 -4 7 8 5 18 7 24 4 5 -3 6 -1 2 6 -4 6 -22 10 -41 8 -19 -2
-32 -1 -30 4 3 4 1 10 -5 14 -5 3 -10 0 -10 -7 -1 -7 -6 -4 -13 8 -7 12 -19
19 -27 17 -13 -4 -13 -3 0 6 11 8 18 6 29 -7 12 -15 13 -15 8 0 -3 9 -3 19 1
21 4 2 1 2 -7 0 -9 -2 -11 3 -7 14 5 15 4 15 -9 -1 -8 -11 -15 -16 -15 -12 0
5 -7 3 -15 -4 -18 -15 -20 1 -3 18 9 9 9 15 -1 25 -11 10 -13 9 -8 -5 6 -18
-18 -33 -28 -17 -4 5 -11 6 -17 3 -6 -4 -5 -10 3 -15 11 -7 11 -9 1 -9 -8 0
-10 -5 -6 -12 4 -8 3 -10 -2 -5 -5 5 -9 14 -9 20 -1 7 -7 11 -14 9 -8 -2 -5 8
8 26 l20 29 -59 -2 c-33 -1 -57 2 -54 6 2 5 11 6 19 2 8 -3 15 0 15 6 0 6 -3
10 -8 10 -27 -4 -32 2 -22 24 9 18 9 20 -2 7 -12 -14 -20 -16 -45 -11 -5 1 -1
6 7 11 8 5 10 10 4 10 -6 0 -18 -8 -25 -17 -9 -11 -10 -14 -2 -9 9 5 11 2 6
-9 -4 -13 -8 -14 -14 -4 -4 7 -3 22 3 33 11 21 11 21 -10 2 -12 -10 -19 -23
-15 -29 3 -6 1 -7 -6 -3 -12 8 -8 18 18 51 15 18 15 19 0 7 -13 -10 -19 -9
-29 3 -9 11 -17 12 -31 4 -16 -8 -21 -6 -28 12 l-8 23 -5 -22 c-4 -12 -2 -20
2 -17 5 3 11 1 14 -4 14 -22 -27 -2 -52 25 -23 25 -30 28 -40 17 -12 -13 -10
-15 15 -17 7 -1 12 -6 10 -11 -1 -6 -6 -8 -12 -6 -5 2 -17 4 -27 5 -15 0 -15
3 -1 31 l16 30 -22 -19 c-11 -11 -24 -16 -28 -13 -3 4 -1 7 5 7 7 0 12 4 12 9
0 4 -182 9 -406 10 l-405 2 2 -176z m988 79 c-6 -8 -15 -12 -19 -9 -5 3 -10
-1 -13 -7 -3 -7 -5 -2 -4 12 1 30 17 43 34 28 10 -8 10 -14 2 -24z m-124 8
c-3 -3 -11 0 -18 7 -9 10 -8 11 6 5 10 -3 15 -9 12 -12z m68 -9 c-7 -2 -19 -2
-25 0 -7 3 -2 5 12 5 14 0 19 -2 13 -5z m55 -48 c-3 -3 -9 2 -12 12 -6 14 -5
15 5 6 7 -7 10 -15 7 -18z m95 9 c-3 -15 -20 -15 -26 0 -4 9 0 13 11 12 9 -2
16 -7 15 -12z m107 -30 c0 0 -10 -9 -22 -20 -19 -15 -20 -16 -9 -1 17 22 3 22
-28 0 -14 -9 -21 -12 -18 -6 4 6 4 13 0 16 -5 2 -3 3 3 1 6 -1 17 2 24 6 11 7
50 10 50 4z m-120 -14 c0 -5 -5 -10 -11 -10 -5 0 -7 5 -4 10 3 6 8 10 11 10 2
0 4 -4 4 -10z m167 -62 c-3 -8 -6 -5 -6 6 -1 11 2 17 5 13 3 -3 4 -12 1 -19z
m53 -18 c0 -5 -2 -10 -4 -10 -3 0 -8 5 -11 10 -3 6 -1 10 4 10 6 0 11 -4 11
-10z m278 -117 c6 5 8 0 5 -12 -5 -19 -5 -19 -24 0 -10 10 -19 24 -19 31 0 6
6 4 13 -7 8 -10 19 -15 25 -12z m-68 -3 c8 -5 11 -10 5 -10 -5 0 -17 5 -25 10
-8 5 -10 10 -5 10 6 0 17 -5 25 -10z m168 -76 c-10 -10 -58 -12 -52 -2 3 5 12
7 20 4 7 -3 16 -1 20 5 3 6 9 8 12 5 3 -3 3 -9 0 -12z m22 -22 c0 -5 -7 -9
-15 -9 -8 0 -12 4 -9 9 3 4 9 8 15 8 5 0 9 -4 9 -8z m75 -22 c3 -5 1 -10 -4
-10 -6 0 -11 5 -11 10 0 6 2 10 4 10 3 0 8 -4 11 -10z m5 -58 c0 -5 -7 -9 -15
-9 -8 0 -12 4 -9 9 3 4 9 8 15 8 5 0 9 -4 9 -8z m35 -11 c3 -5 2 -12 -3 -15
-5 -3 -9 1 -9 9 0 17 3 19 12 6z m109 -30 c10 -11 13 -21 7 -25 -12 -8 -43 22
-36 35 8 12 9 12 29 -10z m-1704 -5 c0 -2 -8 -10 -17 -17 -16 -13 -17 -12 -4
4 13 16 21 21 21 13z m1760 -38 c0 -5 4 -7 9 -4 4 3 16 -3 26 -14 16 -18 16
-20 0 -36 -12 -13 -16 -13 -15 -3 1 8 2 23 1 34 -1 17 -3 18 -11 5 -6 -9 -10
-11 -10 -3 0 7 -6 11 -12 9 -7 -1 -10 -1 -5 1 4 3 4 9 1 14 -3 6 -12 5 -22 -3
-15 -12 -16 -11 -4 4 13 17 42 14 42 -4z m266 -234 c-8 -8 -14 -7 -22 4 -6 9
-16 12 -23 7 -10 -6 -11 -3 -2 12 6 11 7 24 3 29 -4 4 7 -3 24 -17 21 -17 27
-27 20 -35z m-64 39 c-6 -2 -9 -10 -6 -15 4 -7 2 -8 -4 -4 -18 11 -14 26 6 25
10 0 12 -3 4 -6z m-1809 -88 c4 -8 3 -16 -1 -19 -4 -3 -9 4 -9 15 -2 23 3 25
10 4z m-23 -25 c11 -11 16 -20 11 -20 -6 0 -13 5 -16 10 -4 6 -10 8 -14 6 -4
-3 -8 1 -8 9 0 19 3 19 27 -5z m2027 -39 c-6 -2 -13 1 -15 8 -2 6 -8 9 -13 6
-5 -4 -6 2 -2 12 6 16 5 17 -13 3 -17 -14 -18 -13 -7 1 7 9 11 19 8 22 -3 4 8
-5 24 -20 17 -16 25 -30 18 -32z m-1957 -51 c0 -5 -2 -10 -4 -10 -3 0 -8 5
-11 10 -3 6 -1 10 4 10 6 0 11 -4 11 -10z m2030 -34 c0 -2 -8 -10 -17 -17 -16
-13 -17 -12 -4 4 13 16 21 21 21 13z m20 -30 c0 -2 -7 -7 -16 -10 -8 -3 -12
-2 -9 4 6 10 25 14 25 6z m-2050 -21 c12 -14 35 -11 26 4 -3 4 1 8 9 8 13 0
13 -3 0 -17 -20 -22 -19 -37 3 -49 9 -6 13 -10 7 -10 -12 0 -41 21 -43 32 -1
4 -2 12 -2 17 0 6 -5 9 -11 8 -6 -2 -14 3 -16 10 -6 17 12 15 27 -3z m2115 -8
c12 -9 14 -16 7 -21 -6 -4 -9 -13 -6 -20 3 -8 1 -16 -4 -20 -11 -6 -9 24 2 43
7 10 3 12 -15 7 -13 -3 -18 -3 -10 0 11 5 11 8 0 15 -8 5 -9 9 -3 9 5 0 18 -6
29 -13z m-2034 -84 c13 -16 12 -17 -3 -4 -10 7 -18 15 -18 17 0 8 8 3 21 -13z
m-11 -23 c13 -8 13 -10 -2 -10 -11 0 -15 -5 -12 -15 5 -11 10 -13 19 -5 14 11
33 -5 21 -17 -3 -4 -6 -1 -6 7 0 10 -3 10 -14 1 -16 -13 -24 -5 -31 29 -4 22
2 25 25 10z m2146 -62 c3 -4 -1 -5 -10 -4 -8 1 -18 5 -22 8 -3 4 1 5 10 4 8
-1 18 -5 22 -8z m-2066 -83 c7 -9 8 -15 2 -15 -5 0 -12 7 -16 15 -3 8 -4 15
-2 15 2 0 9 -7 16 -15z m2154 -13 c3 -5 -1 -9 -9 -9 -8 0 -15 4 -15 9 0 4 4 8
9 8 6 0 12 -4 15 -8z m9 -37 c-3 -9 -8 -14 -10 -11 -3 3 -2 9 2 15 9 16 15 13
8 -4z m-2142 -18 c-6 -8 -8 -16 -5 -19 3 -3 1 -9 -4 -12 -6 -3 -9 0 -8 6 2 16
15 38 23 38 3 0 0 -6 -6 -13z m2199 -13 c0 -8 -19 -13 -24 -6 -3 5 1 9 9 9 8
0 15 -2 15 -3z m-2156 -43 c-5 -6 -34 20 -34 30 0 5 8 1 18 -8 10 -10 17 -20
16 -22z m-14 -36 c0 -2 -6 -5 -13 -8 -8 -3 -14 1 -14 8 0 7 6 11 14 8 7 -3 13
-6 13 -8z m2270 -5 c0 -5 -2 -10 -4 -10 -3 0 -8 5 -11 10 -3 6 -1 10 4 10 6 0
11 -4 11 -10z m52 -157 c-6 -2 -9 -10 -6 -15 4 -7 2 -8 -5 -4 -13 9 -5 26 12
25 9 0 8 -2 -1 -6z m14 -61 c-17 -16 -18 -16 -5 5 7 12 15 20 18 17 3 -2 -3
-12 -13 -22z m-2220 -16 c-1 -6 -5 -17 -9 -23 -5 -7 -4 -13 2 -13 5 0 15 8 20
18 6 9 10 13 11 7 0 -15 -13 -31 -32 -38 -17 -6 -19 8 -5 31 5 7 4 12 -2 12
-6 0 -11 4 -11 8 0 5 6 9 14 9 7 0 13 -5 12 -11z m4564 -96 c-12 -22 -21 -26
-17 -7 2 10 17 26 25 27 1 0 -2 -9 -8 -20z m164 -54 c-3 -9 -11 -16 -16 -16
-6 0 -5 7 2 15 7 9 10 19 6 22 -4 4 -10 3 -14 -2 -4 -6 -14 -11 -22 -13 -8 -1
-4 6 10 17 20 16 26 17 32 6 5 -7 5 -20 2 -29z m-419 24 c4 -6 1 -9 -7 -8 -7
2 -12 -3 -10 -10 1 -8 -2 -11 -8 -7 -8 5 -7 11 1 21 14 17 16 17 24 4z m270
-10 c3 -5 1 -10 -4 -10 -6 0 -11 5 -11 10 0 6 2 10 4 10 3 0 8 -4 11 -10z
m-433 -42 c-2 -10 -8 -18 -13 -18 -5 0 -6 8 -3 18 4 12 -1 10 -16 -7 -11 -13
-18 -31 -16 -38 3 -8 1 -11 -5 -8 -5 4 -7 15 -4 26 4 13 2 18 -7 16 -7 -2 -10
-2 -6 0 4 3 10 4 13 3 3 0 12 5 19 13 21 20 44 17 38 -5z m645 5 c0 -17 -14
-17 -21 0 -3 6 -5 4 -3 -6 1 -10 6 -18 10 -17 13 2 71 -51 79 -71 11 -28 -8
-32 -29 -6 -10 13 -25 26 -33 30 -11 4 -10 6 4 6 19 1 13 16 -6 16 -6 0 -21
14 -34 30 l-23 30 28 0 c16 1 28 -5 28 -12z m-2452 -3 c3 -5 1 -10 -4 -10 -6
0 -11 5 -11 10 0 6 2 10 4 10 3 0 8 -4 11 -10z m1995 4 c0 -8 -19 -13 -24 -6
-3 5 1 9 9 9 8 0 15 -2 15 -3z m-150 -24 c0 -5 -5 -10 -11 -10 -5 0 -7 5 -4
10 3 6 8 10 11 10 2 0 4 -4 4 -10z m55 -8 c-3 -3 -11 0 -18 7 -9 10 -8 11 6 5
10 -3 15 -9 12 -12z m-188 -7 c0 -7 -6 -12 -13 -12 -7 0 -15 5 -17 12 -3 6 3
11 12 11 10 0 18 -5 18 -11z m-3932 -24 c3 -5 0 -13 -6 -17 -7 -4 -9 -3 -5 4
3 5 0 13 -6 15 -9 4 -10 6 -1 6 6 1 14 -3 18 -8z m2260 -10 c3 -5 2 -12 -3
-15 -5 -3 -9 1 -9 9 0 17 3 19 12 6z m1498 -12 c-6 -6 -9 -19 -6 -28 3 -12 2
-12 -7 2 -9 14 -15 16 -26 6 -10 -8 -11 -15 -4 -24 8 -10 8 -15 -1 -21 -7 -4
-9 -3 -6 3 10 16 -16 34 -33 23 -10 -7 -11 -10 -2 -10 26 0 10 -15 -18 -16
-16 -1 -30 3 -30 8 0 5 -5 6 -10 3 -6 -4 -7 -12 -3 -18 11 -18 12 -38 2 -31
-5 3 -7 9 -4 14 3 5 -1 13 -10 17 -12 7 -12 10 5 21 13 8 21 8 26 1 4 -7 12
-5 22 5 10 8 24 16 32 18 8 2 21 9 28 16 8 7 18 10 23 7 5 -4 9 -1 9 4 0 6 5
11 12 11 9 0 9 -3 1 -11z m-3770 -31 c-4 -22 -4 -23 11 -4 9 11 16 15 16 9 0
-6 -6 -16 -14 -22 -12 -10 -17 -8 -25 8 -8 14 -8 21 2 24 6 3 13 6 14 6 0 1
-1 -9 -4 -21z m4722 -8 c3 -5 2 -10 -4 -10 -5 0 -13 5 -16 10 -3 6 -2 10 4 10
5 0 13 -4 16 -10z m-2415 -25 c14 -19 14 -19 -2 -6 -10 7 -18 18 -18 24 0 6 1
8 3 6 1 -2 9 -13 17 -24z m-2280 -5 c-13 -9 -13 -10 0 -10 9 0 11 -3 5 -8 -6
-4 -11 -12 -10 -19 0 -15 15 -30 15 -15 0 7 4 12 8 12 5 0 9 -7 9 -15 0 -8 -5
-11 -10 -8 -5 3 -7 0 -5 -8 3 -8 11 -13 18 -11 11 2 11 0 2 -11 -10 -11 -9
-17 5 -28 15 -12 16 -12 9 6 -5 14 -4 17 4 9 12 -12 3 -47 -12 -42 -5 2 -9 8
-9 13 0 6 -8 18 -16 28 -9 9 -13 17 -8 17 4 0 0 11 -9 25 -9 14 -14 25 -10 25
4 0 1 7 -7 16 -10 13 -10 17 2 25 8 5 19 9 24 9 6 0 3 -5 -5 -10z m3571 -17
c13 -17 13 -17 -5 -3 -18 14 -19 13 -13 -3 4 -10 3 -16 -2 -12 -5 3 -12 -1
-15 -7 -3 -7 -4 -4 -3 7 2 16 14 34 23 35 1 0 8 -8 15 -17z m149 13 c0 -2 -8
-10 -17 -17 -16 -13 -17 -12 -4 4 13 16 21 21 21 13z m994 -4 c3 -5 -1 -9 -9
-9 -8 0 -12 4 -9 9 3 4 7 8 9 8 2 0 6 -4 9 -8z m-1201 -8 c3 -3 3 -13 0 -21
-5 -12 -7 -12 -14 -1 -15 23 -4 40 14 22z m-1213 -28 c0 -2 -8 -10 -17 -17
-16 -13 -17 -12 -4 4 13 16 21 21 21 13z m2446 -32 c1 -9 0 -13 -4 -10 -3 4
-7 14 -8 22 -1 9 0 13 4 10 3 -4 7 -14 8 -22z m-2403 -13 c-4 -3 -12 -10 -16
-16 -5 -6 -7 -4 -4 5 2 8 -3 21 -12 28 -13 10 -11 10 12 1 15 -7 24 -15 20
-18z m1157 19 c-8 -5 -19 -10 -25 -10 -5 0 -3 5 5 10 8 5 20 10 25 10 6 0 3
-5 -5 -10z m1295 0 c3 -5 1 -10 -4 -10 -6 0 -11 5 -11 10 0 6 2 10 4 10 3 0 8
-4 11 -10z m-2485 -45 c0 -5 -5 -3 -10 5 -5 8 -10 20 -10 25 0 6 5 3 10 -5 5
-8 10 -19 10 -25z m2506 -8 c2 -15 0 -15 -22 -1 -13 9 -21 20 -18 25 8 13 37
-5 40 -24z m-1541 -46 c-9 -8 -36 -10 -30 -2 2 4 11 8 20 8 8 0 13 -3 10 -6z
m-889 -41 c0 -9 -7 -16 -16 -16 -9 0 -16 7 -16 16 0 9 7 16 16 16 9 0 16 -7
16 -16z m804 16 c0 -2 -8 -10 -17 -17 -16 -13 -17 -12 -4 4 13 16 21 21 21 13z
m1610 -12 c0 -8 -19 -13 -24 -6 -3 5 1 9 9 9 8 0 15 -2 15 -3z m-1719 -47
c-10 -9 -11 -8 -5 6 3 10 9 15 12 12 3 -3 0 -11 -7 -18z m-2980 0 c-11 -14 -5
-27 11 -27 5 0 6 5 2 12 -4 6 -3 8 4 4 10 -6 9 -43 -2 -54 -12 -11 -33 8 -32
30 2 24 13 48 23 48 3 0 0 -6 -6 -13z m3019 9 c0 -2 -8 -10 -17 -17 -16 -13
-17 -12 -4 4 13 16 21 21 21 13z m-120 -60 c0 -2 -7 -6 -15 -10 -8 -3 -15 -1
-15 4 0 6 7 10 15 10 8 0 15 -2 15 -4z m-565 -27 c4 -6 -2 -13 -13 -16 -16 -4
-19 -11 -16 -31 3 -15 3 -24 -1 -21 -3 4 -8 16 -10 29 -3 16 1 24 16 27 16 5
18 8 7 14 -9 6 -9 9 -1 9 6 0 15 -5 18 -11z m455 -53 c0 -3 -4 -8 -10 -11 -5
-3 -10 -1 -10 4 0 6 5 11 10 11 6 0 10 -2 10 -4z m-98 -33 c-6 -3 -9 -10 -6
-15 4 -7 2 -8 -5 -4 -9 6 -9 11 0 22 6 8 15 12 18 8 3 -4 0 -9 -7 -11z m-2632
-23 c8 -5 11 -12 8 -16 -4 -3 -14 1 -23 10 -18 17 -9 21 15 6z m2328 -23 c15
6 14 3 -3 -18 -11 -13 -22 -26 -24 -29 -2 -3 0 6 4 19 4 13 3 21 -2 18 -5 -3
-10 4 -10 16 -2 19 -1 20 8 5 6 -11 16 -15 27 -11z m265 -24 c3 -5 -5 -8 -18
-8 -13 0 -21 3 -18 8 2 4 10 7 18 7 8 0 16 -3 18 -7z m-243 -24 c0 -3 -9 -9
-19 -12 -13 -3 -18 0 -15 7 5 13 34 18 34 5z m135 -9 c7 12 25 4 25 -11 0 -5
-8 -9 -17 -7 -13 2 -17 -3 -15 -17 2 -16 1 -17 -7 -5 -6 8 -15 15 -21 15 -5 0
-10 3 -10 8 0 4 0 12 0 17 0 7 6 7 19 0 14 -7 22 -7 26 0z m2325 6 c0 -2 -8
-10 -17 -17 -16 -13 -17 -12 -4 4 13 16 21 21 21 13z m-4745 -36 c4 -6 3 -9
-2 -8 -4 2 -9 -1 -9 -7 -1 -5 2 -9 8 -7 5 1 7 -2 4 -7 -3 -5 -14 -8 -24 -6 -9
2 -21 4 -26 4 -4 1 2 10 15 21 29 23 26 22 34 10z m4830 -70 c-3 -5 -1 -11 5
-15 11 -7 -9 -45 -24 -45 -5 0 -1 9 9 20 17 19 17 20 0 20 -13 0 -15 3 -6 13
6 8 7 18 3 22 -4 5 -1 5 6 1 7 -4 10 -11 7 -16z m-4768 -55 c0 -8 -4 -12 -9
-9 -5 3 -6 10 -3 15 9 13 12 11 12 -6z m4777 -104 c-2 -3 -12 3 -22 13 -16 17
-16 18 5 5 12 -7 20 -15 17 -18z m11 -71 c3 -6 -1 -7 -9 -4 -18 7 -21 14 -7
14 6 0 13 -4 16 -10z m93 -201 c-3 -8 -7 -3 -11 10 -4 17 -3 21 5 13 5 -5 8
-16 6 -23z m-4738 1 c0 -5 -5 -10 -11 -10 -5 0 -7 5 -4 10 3 6 8 10 11 10 2 0
4 -4 4 -10z m5 -60 c-3 -5 -12 -10 -18 -10 -7 0 -6 4 3 10 19 12 23 12 15 0z
m-11 -102 c-3 -4 -9 -8 -15 -8 -5 0 -9 4 -9 8 0 5 7 9 15 9 8 0 12 -4 9 -9z
m46 -52 c0 -2 -7 -7 -16 -10 -8 -3 -12 -2 -9 4 6 10 25 14 25 6z m4804 -31 c3
-9 -1 -18 -9 -22 -14 -5 -14 -7 0 -17 10 -7 13 -18 9 -29 -8 -21 -21 -22 -21
-2 0 8 4 12 9 9 4 -3 8 -1 8 4 0 12 -29 24 -40 17 -5 -3 -12 -1 -15 5 -4 6 -3
9 2 8 4 -1 18 2 31 6 26 9 20 28 -6 20 -14 -5 -15 -4 -2 5 20 15 27 14 34 -4z
m-4797 -47 c-3 -8 -6 -5 -6 6 -1 11 2 17 5 13 3 -3 4 -12 1 -19z m3 -50 c0 -4
-6 -8 -14 -8 -8 0 -17 4 -20 8 -2 4 4 8 15 8 10 0 19 -4 19 -8z m25 -28 c-3
-5 -12 -10 -18 -10 -7 0 -6 4 3 10 19 12 23 12 15 0z m19 -86 c3 -8 2 -12 -4
-9 -6 3 -10 10 -10 16 0 14 7 11 14 -7z m4766 -24 c0 -5 -2 -10 -4 -10 -3 0
-8 5 -11 10 -3 6 -1 10 4 10 6 0 11 -4 11 -10z m-4745 -28 c-3 -3 -11 0 -18 7
-9 10 -8 11 6 5 10 -3 15 -9 12 -12z m4786 -46 c-9 -10 -9 -16 -1 -21 8 -5 8
-10 0 -20 -8 -9 -6 -14 6 -19 13 -5 14 -10 6 -18 -8 -8 -9 -15 -1 -25 8 -9 8
-13 0 -13 -10 0 -15 13 -12 33 0 4 -3 7 -8 7 -6 0 -8 9 -6 20 3 13 -2 20 -13
21 -14 0 -13 2 3 9 11 5 16 9 11 9 -9 1 12 31 21 31 3 0 0 -6 -6 -14z m-11
-128 c0 -4 -4 -8 -9 -8 -6 0 -12 4 -15 8 -3 5 1 9 9 9 8 0 15 -4 15 -9z m4
-44 c3 -8 2 -12 -4 -9 -6 3 -10 10 -10 16 0 14 7 11 14 -7z m-4743 -41 c10
-11 10 -14 2 -9 -7 4 -13 3 -13 -3 0 -5 5 -11 12 -13 8 -3 7 -6 -3 -10 -9 -3
-16 -1 -16 5 0 7 -4 20 -8 30 -9 22 8 22 26 0z m65 -155 c3 -4 -1 -5 -10 -4
-8 1 -18 5 -22 8 -3 4 1 5 10 4 8 -1 18 -5 22 -8z m4739 -45 c-1 -10 -8 -17
-14 -15 -6 1 -11 -5 -11 -13 0 -8 -5 -15 -10 -15 -7 0 -7 6 -1 19 6 10 7 22 3
26 -4 5 -2 5 5 1 6 -3 14 -2 18 4 9 15 14 12 10 -7z m-4724 -80 c13 -16 12
-17 -3 -4 -17 13 -22 21 -14 21 2 0 10 -8 17 -17z m4713 -22 c10 -11 12 -21 6
-31 -10 -15 -10 -14 -14 23 0 6 -6 12 -13 12 -6 0 -14 3 -17 6 -3 3 1 6 9 6 8
0 21 -8 29 -16z m-6 -66 c-3 -3 -9 2 -12 12 -6 14 -5 15 5 6 7 -7 10 -15 7
-18z m-4678 -65 c0 -5 -2 -10 -4 -10 -3 0 -8 5 -11 10 -3 6 -1 10 4 10 6 0 11
-4 11 -10z m4700 -91 c0 -5 -4 -9 -8 -9 -5 0 -9 7 -9 15 0 8 4 12 9 9 4 -3 8
-9 8 -15z m-20 -89 c0 -5 -2 -10 -4 -10 -3 0 -8 5 -11 10 -3 6 -1 10 4 10 6 0
11 -4 11 -10z m-4652 -22 c-2 -8 5 -12 17 -10 16 2 17 1 5 -7 -9 -6 -19 -6
-26 -1 -6 6 -15 6 -20 2 -4 -4 -2 1 5 11 16 20 22 22 19 5z m-15 -45 c-6 -16
-5 -16 10 -4 15 12 17 12 11 -2 -7 -19 -31 -30 -39 -17 -7 11 5 40 16 40 4 0
5 -8 2 -17z m4687 7 c0 -4 -7 -7 -15 -6 -23 3 -26 12 -5 13 11 1 20 -2 20 -7z
m215 -90 c3 -5 1 -10 -4 -10 -6 0 -11 5 -11 10 0 6 2 10 4 10 3 0 8 -4 11 -10z
m67 -16 c-5 -27 -7 -27 -20 0 -9 20 -8 24 6 21 11 -1 16 -9 14 -21z m162 18
c2 -4 1 -14 -4 -22 -7 -12 -10 -12 -16 3 -3 9 -10 14 -15 11 -5 -3 -7 -10 -4
-15 3 -5 -1 -6 -9 -3 -9 3 -16 10 -16 16 0 5 4 7 9 3 5 -3 12 -1 16 5 7 12 32
13 39 2z m97 -6 c12 7 12 5 1 -9 -8 -9 -10 -22 -6 -28 4 -8 3 -9 -4 -5 -7 4
-12 14 -12 22 0 8 -4 14 -10 14 -13 0 -13 -6 1 -33 9 -19 7 -18 -10 3 -21 26
-28 45 -12 35 5 -3 13 0 17 6 5 8 9 8 14 -1 5 -8 13 -9 21 -4z m244 -9 c-8
-13 -12 -27 -8 -31 4 -4 -1 -4 -11 0 -15 6 -17 4 -11 -6 5 -9 4 -11 -4 -6 -6
4 -9 11 -6 16 3 5 1 11 -5 15 -5 3 -10 1 -10 -6 0 -7 -3 -9 -6 -6 -12 12 18
38 37 32 9 -3 20 -1 24 5 3 5 8 10 11 10 2 0 -2 -10 -11 -23z m-421 -3 c3 -8
0 -16 -6 -20 -7 -4 -8 -3 -4 4 4 7 3 12 -3 12 -5 0 -13 -5 -16 -10 -5 -8 -11
-8 -19 -1 -7 6 -17 7 -21 3 -5 -4 -5 -1 -1 6 4 7 11 10 16 7 5 -3 11 -2 14 3
8 13 35 10 40 -4z m243 9 c-4 -3 -1 -13 6 -22 11 -14 10 -15 -7 -1 -18 14 -19
13 -12 -5 6 -16 5 -17 -5 -8 -10 10 -9 15 1 28 7 8 15 15 18 15 3 0 2 -3 -1
-7z m98 -14 c-4 -5 -12 -9 -18 -8 -9 0 -8 2 1 6 6 2 9 10 6 15 -4 7 -2 8 5 4
6 -4 9 -12 6 -17z m-231 -5 c3 -8 2 -12 -4 -9 -6 3 -10 10 -10 16 0 14 7 11
14 -7z m-5110 -3 c4 -5 -4 -7 -16 -4 -22 4 -22 4 -5 -10 17 -14 16 -15 -3 -20
-25 -6 -36 9 -20 28 14 17 36 20 44 6z m4736 5 c0 -3 -4 -8 -10 -11 -5 -3 -10
-1 -10 4 0 6 5 11 10 11 6 0 10 -2 10 -4z m110 -6 c0 -5 -2 -10 -4 -10 -3 0
-8 5 -11 10 -3 6 -1 10 4 10 6 0 11 -4 11 -10z m750 -27 c0 -1 -7 0 -15 3 -11
5 -14 2 -9 -12 4 -11 4 -16 0 -13 -4 4 -9 18 -12 33 -4 25 -4 26 16 9 11 -10
20 -19 20 -20z m20 27 c0 -5 -5 -10 -11 -10 -5 0 -7 5 -4 10 3 6 8 10 11 10 2
0 4 -4 4 -10z m24 -6 c3 -8 2 -12 -4 -9 -6 3 -10 10 -10 16 0 14 7 11 14 -7z
m-110 -12 c2 -4 -4 -8 -14 -8 -10 0 -16 4 -14 8 3 4 9 8 14 8 5 0 11 -4 14 -8z
m112 -18 c18 -14 18 -14 -6 -3 -31 14 -36 19 -24 19 6 0 19 -7 30 -16z m237
-22 c3 10 7 10 19 1 8 -7 17 -10 20 -8 3 3 13 -6 22 -19 11 -18 13 -27 4 -32
-7 -4 -8 -3 -4 4 8 14 -29 35 -67 38 -18 2 -25 -1 -21 -9 4 -7 3 -8 -2 -4 -5
5 -9 14 -9 20 -1 7 -6 11 -13 10 -7 -2 -12 4 -12 13 0 13 5 12 29 -5 21 -15
30 -18 34 -9z m-53 -18 c0 -8 -19 -13 -24 -6 -3 5 1 9 9 9 8 0 15 -2 15 -3z
m-5830 -36 c0 -6 -6 -5 -15 2 -8 7 -15 14 -15 16 0 2 7 1 15 -2 8 -4 15 -11
15 -16z m5915 13 c3 -5 2 -12 -3 -15 -5 -3 -9 1 -9 9 0 17 3 19 12 6z m119
-13 c-4 -7 -2 -8 4 -4 6 4 22 1 34 -5 13 -7 31 -13 40 -14 28 -2 29 -10 5 -24
-21 -13 -21 -13 -7 4 14 17 13 18 -4 12 -11 -5 -22 -3 -27 4 -4 6 -18 12 -33
12 -19 0 -26 5 -26 19 0 10 5 16 10 13 6 -4 7 -11 4 -17z m-49 -28 c3 -6 -1
-7 -9 -4 -18 7 -21 14 -7 14 6 0 13 -4 16 -10z m76 -17 c13 -16 12 -17 -3 -4
-10 7 -18 15 -18 17 0 8 8 3 21 -13z m172 -78 c-3 -9 -8 -14 -10 -11 -3 3 -2
9 2 15 9 16 15 13 8 -4z m82 -35 c10 -11 16 -20 13 -20 -3 0 -13 9 -23 20 -10
11 -16 20 -13 20 3 0 13 -9 23 -20z m125 -55 c0 -8 -4 -15 -10 -15 -5 0 -7 7
-4 15 4 8 8 15 10 15 2 0 4 -7 4 -15z m-6387 -62 c-7 -2 -13 -11 -13 -19 0 -8
-5 -14 -10 -14 -7 0 -7 6 0 20 6 11 16 20 23 19 9 0 9 -2 0 -6z m4 -67 c0 -7
-11 -13 -24 -13 -29 0 -29 5 0 17 12 5 22 9 23 9 0 1 1 -5 1 -13z m6536 -1
c-3 -9 -8 -14 -10 -11 -3 3 -2 9 2 15 9 16 15 13 8 -4z m-6518 -54 c3 -5 0
-13 -6 -17 -7 -4 -9 -3 -5 4 3 5 0 13 -6 15 -9 4 -10 6 -1 6 6 1 14 -3 18 -8z
m6605 -11 c0 -5 -5 -10 -11 -10 -5 0 -7 5 -4 10 3 6 8 10 11 10 2 0 4 -4 4
-10z m151 -147 c7 -10 9 -15 5 -11 -5 4 -16 2 -25 -5 -14 -10 -14 -10 -4 4 7
9 10 19 6 22 -3 4 -4 7 -1 7 3 0 12 -8 19 -17z m-6738 -29 c-7 -3 -9 -13 -6
-22 4 -14 3 -14 -5 -2 -12 16 -7 30 11 29 9 0 9 -2 0 -5z m6787 -23 c7 -14 7
-22 -2 -27 -6 -4 -8 -3 -4 4 3 6 -3 14 -15 17 -17 6 -19 9 -8 16 18 11 17 12
29 -10z m-25 -20 c3 -5 2 -12 -3 -15 -5 -3 -9 1 -9 9 0 17 3 19 12 6z m86 -72
c-9 -4 -21 -3 -27 2 -6 5 -14 6 -17 2 -4 -3 -7 -1 -7 5 0 15 13 15 28 0 7 -7
12 -8 12 -2 0 17 -22 33 -36 27 -8 -3 -14 -1 -14 4 0 22 15 21 44 -5 26 -22
29 -28 17 -33z m-6824 35 c-3 -3 -12 -4 -19 -1 -8 3 -5 6 6 6 11 1 17 -2 13
-5z m-3 -23 c3 -5 -2 -15 -12 -22 -15 -12 -16 -12 -5 2 7 9 10 19 6 22 -3 4
-4 7 0 7 3 0 8 -4 11 -9z m6854 -30 c7 -4 12 -12 10 -17 -1 -5 3 -19 10 -31 9
-16 9 -24 0 -29 -7 -4 -8 -3 -4 4 4 7 2 12 -4 12 -6 0 -9 3 -7 8 7 10 -19 32
-29 24 -5 -4 -2 2 6 12 14 18 13 18 -10 12 -19 -6 -21 -5 -10 3 18 13 21 13
38 2z m-34 -37 c3 -8 2 -12 -4 -9 -6 3 -10 10 -10 16 0 14 7 11 14 -7z m-6824
-104 c-24 -15 -36 -11 -14 4 10 8 21 12 24 10 2 -3 -2 -9 -10 -14z m6953 -26
c-3 -8 -10 -14 -16 -14 -6 0 -7 3 -4 7 8 7 -11 33 -25 33 -5 0 -6 -5 -2 -12 5
-7 3 -8 -6 -3 -10 6 -9 11 5 21 16 12 21 11 36 -2 10 -9 15 -22 12 -30z
m-6944 9 c-4 -22 2 -33 14 -27 6 4 9 4 5 0 -3 -4 -8 -7 -10 -5 -1 1 -13 -3
-25 -10 -19 -10 -22 -9 -17 4 3 8 11 12 17 8 6 -4 8 0 4 9 -3 9 -3 19 0 22 8
8 13 8 12 -1z m7002 -170 c13 -16 12 -17 -3 -4 -10 7 -18 15 -18 17 0 8 8 3
21 -13z m-6981 -23 c0 -5 -5 -10 -11 -10 -5 0 -7 5 -4 10 3 6 8 10 11 10 2 0
4 -4 4 -10z m7030 -5 c6 -7 13 -20 14 -27 1 -7 5 -19 9 -25 13 -21 -4 -15 -25
9 -10 12 -17 27 -14 34 3 7 0 15 -7 18 -8 3 -8 5 -1 5 6 1 17 -6 24 -14z
m-7015 -34 c3 -5 2 -12 -3 -15 -5 -3 -9 1 -9 9 0 17 3 19 12 6z m7006 -29 c-7
-2 -18 1 -23 6 -8 8 -4 9 13 5 13 -4 18 -8 10 -11z m-7037 -24 c-14 -22 -13
-37 2 -31 9 3 14 -1 13 -13 0 -11 -3 -14 -5 -7 -3 7 -11 10 -19 7 -21 -8 -29
16 -11 35 19 20 21 35 4 25 -7 -5 -8 -3 -3 5 5 9 11 9 17 3 6 -6 7 -16 2 -24z
m40 -6 c2 -4 -4 -8 -14 -8 -10 0 -16 4 -14 8 3 4 9 8 14 8 5 0 11 -4 14 -8z
m7030 -72 c-6 -6 -10 -3 -10 10 0 13 4 16 10 10 7 -7 7 -13 0 -20z m-7004 14
c0 -8 -19 -13 -24 -6 -3 5 1 9 9 9 8 0 15 -2 15 -3z m7030 -38 c0 -3 -4 -8
-10 -11 -5 -3 -10 -1 -10 4 0 6 5 11 10 11 6 0 10 -2 10 -4z m-7065 -46 c-3
-5 -12 -10 -18 -10 -7 0 -6 4 3 10 19 12 23 12 15 0z m7105 -74 c0 -3 -4 -8
-10 -11 -5 -3 -10 -1 -10 4 0 6 5 11 10 11 6 0 10 -2 10 -4z m-7099 -49 c-6
-8 -8 -17 -4 -21 4 -4 0 -4 -10 0 -17 6 -17 7 0 20 23 17 28 18 14 1z m7165
-5 c-4 -4 -11 -7 -14 -6 -4 1 -11 -4 -17 -10 -5 -6 -9 -9 -8 -7 2 2 -1 9 -6
15 -6 8 1 12 21 13 17 1 28 -1 24 -5z m-7182 -38 c3 -9 11 -12 18 -8 7 4 6 1
-2 -7 -8 -8 -19 -20 -25 -27 -8 -11 -11 -9 -11 7 0 11 4 17 8 15 12 -8 9 11
-4 24 -8 8 -8 12 -1 12 6 0 14 -7 17 -16z m11 -62 c-6 -4 -11 -16 -11 -27 0
-11 5 -23 11 -27 6 -5 6 -8 -2 -8 -7 0 -13 -5 -13 -11 0 -5 6 -7 13 -3 6 4 9
3 4 -1 -12 -14 -45 -13 -43 1 1 6 8 19 14 27 9 11 10 17 2 22 -13 8 5 35 24
35 7 0 8 -3 1 -8z m35 -28 c0 -8 -19 -13 -24 -6 -3 5 1 9 9 9 8 0 15 -2 15 -3z
m7176 -86 c4 -7 4 -10 -1 -6 -4 4 -17 3 -29 -3 -20 -10 -20 -10 -2 5 24 19 23
19 32 4z m8 -47 c-4 -3 -9 -1 -11 6 -2 7 -12 9 -21 6 -14 -4 -15 -3 -2 5 15
11 47 -5 34 -17z m-7228 -53 c4 -7 3 -8 -4 -4 -7 4 -12 3 -12 -3 0 -14 35 -32
45 -23 5 4 5 1 1 -6 -5 -9 -12 -9 -27 -2 -11 6 -23 8 -28 5 -11 -6 -9 14 2 33
10 15 14 15 23 0z m-16 -138 c-11 -20 -10 -21 9 -15 13 4 21 2 21 -5 0 -6 -4
-8 -10 -5 -5 3 -10 1 -10 -4 0 -6 6 -11 13 -11 6 -1 2 -6 -11 -13 -12 -7 -20
-16 -16 -20 4 -4 14 -1 22 6 13 11 14 9 1 -10 -16 -27 -27 -29 -36 -7 -4 10 1
22 10 29 15 11 15 14 3 24 -12 10 -14 29 -6 51 1 3 2 10 0 15 -1 6 4 5 10 -1
9 -9 9 -17 0 -34z m15 -153 c0 -15 -6 -23 -17 -23 -13 0 -14 4 -6 13 6 7 7 13
2 13 -5 0 -2 5 6 10 8 5 15 10 15 10 0 0 0 -10 0 -23z m6029 -85 c3 -5 -1 -9
-9 -9 -8 0 -12 4 -9 9 3 4 7 8 9 8 2 0 6 -4 9 -8z m-6000 -21 c-9 -9 -34 -9
-34 -1 0 5 9 8 20 7 10 -1 17 -3 14 -6z m5851 -9 c-3 -3 -11 0 -18 7 -9 10 -8
11 6 5 10 -3 15 -9 12 -12z m-191 -10 c3 -5 -1 -9 -9 -9 -8 0 -12 4 -9 9 3 4
7 8 9 8 2 0 6 -4 9 -8z m146 -4 c0 -9 4 -8 10 2 6 9 10 10 10 3 0 -19 -17 -24
-30 -8 -9 10 -9 15 -1 15 6 0 11 -6 11 -12z m430 -4 c0 -2 -7 -4 -15 -4 -8 0
-15 4 -15 10 0 5 7 7 15 4 8 -4 15 -8 15 -10z m-366 -10 c5 -13 4 -14 -7 -6
-8 7 -18 8 -22 4 -5 -4 -5 -1 -1 6 10 17 23 15 30 -4z m412 -3 c-4 -5 -1 -11
6 -13 8 -3 6 -7 -5 -11 -17 -6 -24 12 -10 26 9 10 15 8 9 -2z m129 -1 c3 -6
-1 -7 -9 -4 -18 7 -21 14 -7 14 6 0 13 -4 16 -10z m55 -15 c7 -9 8 -15 2 -15
-5 0 -12 7 -16 15 -3 8 -4 15 -2 15 2 0 9 -7 16 -15z m-6480 -5 c0 -5 -5 -10
-11 -10 -5 0 -7 5 -4 10 3 6 8 10 11 10 2 0 4 -4 4 -10z m6340 -2 c0 -10 3 -9
9 1 7 11 12 11 31 -2 22 -16 22 -16 -9 -13 -30 2 -70 26 -43 26 7 0 12 -6 12
-12z m99 1 c6 10 10 9 14 -3 9 -23 -8 -28 -30 -8 -10 9 -13 13 -5 8 9 -7 16
-5 21 3z m121 6 c0 -2 -10 -9 -22 -15 -22 -11 -22 -10 -4 4 21 17 26 19 26 11z
m75 -35 c-2 -11 0 -22 6 -25 5 -4 9 0 9 7 0 9 3 9 10 -2 5 -8 10 -10 10 -5 0
6 5 3 10 -5 15 -24 12 -33 -6 -15 -12 11 -20 13 -29 5 -10 -8 -15 -8 -20 0 -4
6 -14 9 -22 6 -8 -3 -11 -1 -8 4 3 6 1 10 -4 10 -6 0 -11 8 -11 17 0 15 2 14
14 -3 13 -18 29 -14 32 7 2 16 4 19 8 19 3 0 3 -9 1 -20z m-1231 -8 c3 -5 -1
-9 -9 -9 -8 0 -12 4 -9 9 3 4 7 8 9 8 2 0 6 -4 9 -8z m1310 0 c3 -5 -1 -9 -9
-9 -8 0 -12 4 -9 9 3 4 7 8 9 8 2 0 6 -4 9 -8z m25 -56 c13 -7 20 -16 15 -19
-5 -3 -20 3 -33 14 -27 22 -17 25 18 5z m462 -3 c13 -16 12 -17 -3 -4 -10 7
-18 15 -18 17 0 8 8 3 21 -13z m-1878 -7 c3 3 4 -2 3 -12 -4 -26 -66 -28 -66
-2 0 6 6 5 15 -2 15 -13 39 -5 29 11 -3 5 -10 6 -16 3 -7 -4 -8 -2 -4 5 6 8
12 9 20 2 7 -6 15 -8 19 -5z m1606 -22 c-14 -13 -16 -13 -16 0 0 8 5 12 10 9
7 -4 8 1 3 13 -6 15 -5 17 5 6 11 -10 10 -15 -2 -28z m-1569 22 c0 -3 -4 -8
-10 -11 -5 -3 -10 -1 -10 4 0 6 5 11 10 11 6 0 10 -2 10 -4z m1807 -2 c-3 -3
-12 -4 -19 -1 -8 3 -5 6 6 6 11 1 17 -2 13 -5z m-1923 -12 c3 -5 -1 -9 -9 -9
-8 0 -12 4 -9 9 3 4 7 8 9 8 2 0 6 -4 9 -8z m1756 -8 c0 -2 -7 -4 -15 -4 -8 0
-15 4 -15 10 0 5 7 7 15 4 8 -4 15 -8 15 -10z m43 4 c-4 -7 -8 -16 -9 -20 -1
-5 -2 -11 -3 -15 0 -4 -6 -2 -13 5 -9 9 -8 15 8 27 24 18 27 18 17 3z m25 -8
c-7 -10 -14 -18 -15 -16 -6 6 9 36 18 36 5 0 4 -9 -3 -20z m43 -4 c5 3 6 10 3
16 -4 7 -2 8 4 4 9 -6 7 -36 -3 -36 -19 0 -33 14 -27 28 6 16 7 15 10 -1 2 -9
8 -15 13 -11z m83 15 c3 -5 -1 -11 -9 -14 -9 -4 -12 -1 -8 9 6 16 10 17 17 5z
m-2079 -140 c3 -5 1 -12 -5 -16 -5 -3 -10 1 -10 9 0 18 6 21 15 7z m-46 -57
c-12 -13 -26 -21 -30 -18 -12 7 -11 31 0 38 5 4 7 -4 4 -16 -6 -23 -6 -23 14
-3 11 11 16 22 12 23 -5 2 -9 8 -9 14 0 6 6 5 15 -2 14 -12 13 -16 -6 -36z
m-69 -46 c0 -6 -3 -8 -7 -5 -3 4 -13 1 -22 -6 -14 -11 -14 -10 -2 6 15 20 31
22 31 5z m-5046 -71 c3 3 6 1 6 -5 0 -16 -12 -15 -36 4 -18 15 -18 15 2 5 12
-6 24 -7 28 -4z m-14 -77 c0 -3 -6 -7 -13 -7 -7 0 -13 8 -13 18 0 13 3 15 13
7 7 -6 13 -14 13 -18z m4896 -85 c-1 -8 -5 -17 -8 -21 -5 -4 -4 16 1 34 3 9 9
-1 7 -13z m54 -5 c0 -5 -2 -10 -4 -10 -3 0 -8 5 -11 10 -3 6 -1 10 4 10 6 0
11 -4 11 -10z m-4930 -60 c0 -5 -2 -10 -4 -10 -3 0 -8 5 -11 10 -3 6 -1 10 4
10 6 0 11 -4 11 -10z m-55 -58 c-2 -9 -4 -21 -5 -27 0 -5 -6 -1 -12 9 -8 15
-8 21 0 24 7 2 9 9 6 14 -4 6 -2 8 4 5 5 -4 9 -15 7 -25z m4899 13 c-4 -8 -11
-15 -16 -15 -6 0 -5 6 2 15 7 8 14 15 16 15 2 0 1 -7 -2 -15z m-4869 -4 c3 -5
2 -12 -3 -15 -5 -3 -9 1 -9 9 0 17 3 19 12 6z m4863 -78 c-12 -14 -28 -8 -28
10 0 8 3 8 9 -2 5 -7 11 -9 14 -4 7 12 -18 44 -28 35 -5 -4 -5 -1 0 7 6 11 12
9 26 -10 13 -17 15 -27 7 -36z m-14 -27 c8 3 16 -2 20 -11 3 -9 2 -14 -3 -11
-11 7 -32 -17 -35 -41 -3 -19 -7 -20 -34 -3 -16 10 -15 10 2 8 10 -2 21 3 24
11 2 8 0 11 -5 8 -5 -3 -10 0 -10 8 0 8 4 15 9 15 4 0 8 -5 8 -11 0 -5 5 -7
11 -3 8 4 8 9 0 17 -6 6 -11 16 -10 22 0 5 3 5 5 -2 3 -7 11 -10 18 -7z
m-4827 -21 c0 -8 -4 -12 -9 -9 -5 3 -6 10 -3 15 9 13 12 11 12 -6z m-37 -19
c0 -3 -4 -8 -10 -11 -5 -3 -10 -1 -10 4 0 6 5 11 10 11 6 0 10 -2 10 -4z m-35
-27 c-4 -5 0 -9 7 -9 8 0 6 -5 -5 -11 -10 -6 -21 -8 -24 -5 -4 3 0 6 8 6 12 0
12 2 0 9 -7 5 -10 14 -7 20 4 6 12 9 17 5 5 -3 7 -10 4 -15z m4850 -19 c3 -5
1 -10 -4 -10 -6 0 -11 5 -11 10 0 6 2 10 4 10 3 0 8 -4 11 -10z m-4864 -38
c-10 -3 -7 -9 10 -19 21 -11 21 -13 4 -11 -11 2 -23 7 -27 13 -8 11 12 39 21
29 3 -4 0 -9 -8 -12z m4875 -69 c-3 -21 -31 -29 -42 -12 -4 7 -3 9 3 6 6 -4
16 0 23 8 16 19 19 19 16 -2z m-46 -33 c0 -5 -2 -10 -4 -10 -3 0 -8 5 -11 10
-3 6 -1 10 4 10 6 0 11 -4 11 -10z m23 -36 c-3 -15 -20 -15 -26 0 -4 9 0 13
11 12 9 -2 16 -7 15 -12z m-4833 -4 c0 -5 -2 -10 -4 -10 -3 0 -8 5 -11 10 -3
6 -1 10 4 10 6 0 11 -4 11 -10z m-16 -36 c3 -8 2 -12 -4 -9 -6 3 -10 10 -10
16 0 14 7 11 14 -7z m4839 3 c3 -7 -3 -13 -14 -14 -15 -1 -16 1 -6 12 15 18
14 18 20 2z m-19 -65 c2 -4 -5 -9 -17 -9 -17 -2 -19 0 -7 7 18 12 18 12 24 2z
m1 -110 c-3 -3 -11 0 -18 7 -9 10 -8 11 6 5 10 -3 15 -9 12 -12z m16 -55 c-10
-9 -11 -8 -5 6 3 10 9 15 12 12 3 -3 0 -11 -7 -18z m-4888 -54 c-4 -10 -2 -14
4 -10 5 3 10 0 10 -7 0 -11 -4 -12 -18 -3 -13 8 -15 15 -7 24 14 18 19 16 11
-4z m35 -8 c-3 -3 -9 2 -12 12 -6 14 -5 15 5 6 7 -7 10 -15 7 -18z m-29 -91
c4 3 8 -2 8 -10 0 -10 -4 -11 -11 -4 -17 17 -29 11 -15 -7 8 -9 9 -14 3 -10
-7 4 -11 -10 -11 -41 -1 -25 -6 -48 -12 -50 -21 -7 -11 -23 12 -17 21 6 21 5
2 -6 -28 -17 -28 -16 -19 -31 13 -20 14 -39 2 -31 -7 4 -9 -2 -5 -18 6 -23 6
-23 -9 -4 -10 13 -11 21 -4 23 7 3 5 11 -5 22 -10 11 -14 24 -9 32 8 13 12 30
18 83 2 17 4 31 5 33 1 1 0 4 -1 5 -2 2 3 11 11 20 9 12 10 17 2 17 -7 0 -9 5
-6 10 4 6 12 4 21 -5 9 -8 19 -13 23 -11z m4891 20 c0 -8 -19 -13 -24 -6 -3 5
1 9 9 9 8 0 15 -2 15 -3z m-4866 -82 c2 -4 -5 -9 -17 -9 -17 -2 -19 0 -7 7 18
12 18 12 24 2z m4906 -2 c0 -5 -5 -10 -11 -10 -5 0 -7 5 -4 10 3 6 8 10 11 10
2 0 4 -4 4 -10z m19 -41 c-13 -25 -30 -34 -22 -13 4 10 2 15 -4 11 -5 -3 -10
0 -10 6 0 7 11 13 23 13 18 0 21 -3 13 -17z m-43 -34 c1 -8 -2 -15 -6 -15 -5
0 -8 9 -7 20 1 21 10 18 13 -5z m-4905 -32 c12 -16 12 -17 -2 -6 -9 7 -20 9
-24 5 -5 -4 -5 -1 -1 6 9 16 11 15 27 -5z m4944 -33 c8 -13 -5 -13 -25 0 -13
8 -13 10 2 10 9 0 20 -4 23 -10z m-4955 -20 c0 -5 -5 -10 -11 -10 -5 0 -7 5
-4 10 3 6 8 10 11 10 2 0 4 -4 4 -10z m4945 -19 c-3 -6 -11 -11 -16 -11 -5 0
-4 6 3 14 14 16 24 13 13 -3z m1 -57 c-5 -12 -2 -15 10 -10 23 9 37 -3 23 -20
-6 -8 -8 -14 -4 -14 4 0 2 -7 -5 -15 -7 -8 -18 -15 -24 -15 -6 0 -3 7 6 14 10
7 15 16 11 19 -3 4 -13 1 -22 -6 -14 -10 -14 -10 -3 5 8 10 9 18 3 22 -10 6
-4 36 6 36 3 0 2 -7 -1 -16z m-4946 0 c0 -8 -19 -13 -24 -6 -3 5 1 9 9 9 8 0
15 -2 15 -3z m-6 -82 c2 -4 -5 -9 -17 -9 -17 -2 -19 0 -7 7 18 12 18 12 24 2z
m4981 -44 c-1 -13 -5 -22 -8 -20 -4 1 -13 5 -21 8 -8 3 -17 13 -21 22 -5 13
-2 13 15 -3 11 -10 20 -13 20 -7 0 6 -5 14 -10 17 -6 4 -8 11 -4 16 10 16 31
-8 29 -33z"/>
<path d="M966 8921 c-4 -5 -2 -12 3 -15 5 -4 12 -2 15 3 4 5 2 12 -3 15 -5 4
-12 2 -15 -3z"/>
<path d="M1890 8406 c0 -2 8 -10 18 -17 15 -13 16 -12 3 4 -13 16 -21 21 -21
13z"/>
<path d="M2200 8156 c0 -2 8 -10 18 -17 15 -13 16 -12 3 4 -13 16 -21 21 -21
13z"/>
<path d="M5550 6960 c5 -10 16 -22 23 -26 9 -6 9 -5 0 8 -7 8 -10 17 -7 20 2
3 -2 8 -11 12 -13 4 -14 2 -5 -14z"/>
<path d="M953 6594 c0 -16 13 -19 21 -5 3 5 0 11 -7 14 -8 3 -14 -1 -14 -9z"/>
<path d="M6995 4290 c3 -5 11 -10 16 -10 6 0 7 5 4 10 -3 6 -11 10 -16 10 -6
0 -7 -4 -4 -10z"/>
<path d="M8640 3316 c0 -2 8 -10 18 -17 15 -13 16 -12 3 4 -13 16 -21 21 -21
13z"/>
<path d="M8770 3081 c0 -6 4 -13 10 -16 6 -3 7 1 4 9 -7 18 -14 21 -14 7z"/>
<path d="M1546 353 c-6 -14 -5 -15 5 -6 7 7 10 15 7 18 -3 3 -9 -2 -12 -12z"/>
<path d="M6550 139 c0 -5 5 -7 10 -4 6 3 10 8 10 11 0 2 -4 4 -10 4 -5 0 -10
-5 -10 -11z"/>
<path d="M875 8980 c3 -5 8 -10 11 -10 2 0 4 5 4 10 0 6 -5 10 -11 10 -5 0 -7
-4 -4 -10z"/>
<path d="M1136 8875 c4 -8 8 -15 10 -15 2 0 4 7 4 15 0 8 -4 15 -10 15 -5 0
-7 -7 -4 -15z"/>
<path d="M1199 8813 c-12 -16 -12 -17 2 -6 12 10 18 10 28 0 10 -9 11 -8 6 6
-4 9 -11 17 -15 17 -4 0 -14 -8 -21 -17z"/>
<path d="M1336 8774 c-8 -22 1 -34 21 -27 12 5 14 3 8 -7 -5 -9 -4 -11 4 -6
16 10 2 29 -16 22 -11 -4 -13 -1 -8 14 8 24 0 27 -9 4z"/>
<path d="M1470 8726 c0 -2 7 -7 16 -10 8 -3 12 -2 9 4 -6 10 -25 14 -25 6z"/>
<path d="M1464 8701 c4 -6 2 -11 -3 -11 -6 0 -11 -6 -11 -14 0 -8 8 -13 18
-11 9 1 23 -2 30 -8 8 -7 12 -5 12 6 0 8 -12 22 -26 32 -15 9 -23 12 -20 6z"/>
<path d="M1516 8687 c3 -10 9 -15 12 -12 3 3 0 11 -7 18 -10 9 -11 8 -5 -6z"/>
<path d="M1777 8533 c-4 -3 -2 -12 3 -19 6 -6 9 -17 8 -24 -2 -7 2 -14 9 -17
7 -2 11 4 10 16 -1 11 -7 23 -15 26 -7 3 -10 9 -7 15 7 11 2 13 -8 3z"/>
<path d="M93 8447 c0 -7 9 -14 19 -14 10 -1 18 3 18 9 0 6 -3 8 -7 5 -3 -4
-11 -2 -18 3 -8 7 -12 6 -12 -3z"/>
<path d="M1951 8407 c2 -1 13 -9 24 -17 19 -14 19 -14 6 3 -7 9 -18 17 -24 17
-6 0 -8 -1 -6 -3z"/>
<path d="M157 8352 c1 -3 -2 -14 -8 -25 -7 -13 -8 -17 -1 -13 6 4 15 -2 21
-11 7 -13 13 -15 21 -7 8 8 5 18 -12 36 -13 13 -22 22 -21 20z m24 -34 c11
-21 11 -22 -4 -9 -10 7 -17 17 -17 22 0 15 9 10 21 -13z"/>
<path d="M192 8266 c1 -14 6 -22 10 -20 4 3 8 0 8 -5 0 -6 -5 -11 -11 -11 -5
0 -7 -5 -3 -12 6 -9 9 -9 12 0 2 7 8 10 13 6 5 -3 6 -11 2 -17 -14 -22 -13
-39 2 -27 8 7 15 7 19 1 3 -5 3 -11 -1 -14 -5 -2 -2 -2 5 -1 9 3 11 -6 7 -28
-4 -18 -3 -30 0 -27 14 15 13 54 -2 71 -9 10 -13 18 -9 18 4 0 -4 15 -17 33
-14 17 -22 38 -20 45 3 6 0 12 -6 12 -6 0 -10 -11 -9 -24z"/>
<path d="M2115 8256 c-18 -13 -17 -15 16 -31 19 -10 38 -23 42 -29 6 -7 7 -4
3 7 -3 10 -6 21 -6 23 0 3 -4 2 -10 -1 -5 -3 -10 3 -10 14 0 27 -13 33 -35 17z
m25 -11 c0 -9 -6 -12 -16 -8 -13 5 -13 7 -2 14 17 11 18 11 18 -6z"/>
<path d="M2350 8076 c0 -2 8 -10 18 -17 15 -13 16 -12 3 4 -13 16 -21 21 -21
13z"/>
<path d="M296 8003 c-6 -14 -5 -15 5 -6 7 7 10 15 7 18 -3 3 -9 -2 -12 -12z"/>
<path d="M2435 7990 c10 -11 20 -20 23 -20 3 0 -3 9 -13 20 -10 11 -20 20 -23
20 -3 0 3 -9 13 -20z"/>
<path d="M362 7926 c7 -8 15 -12 17 -11 5 6 -10 25 -20 25 -5 0 -4 -6 3 -14z"/>
<path d="M2556 7841 c-4 -6 -1 -11 6 -11 9 0 9 -3 -2 -10 -9 -6 -10 -10 -3
-10 17 0 23 14 14 29 -6 9 -11 10 -15 2z"/>
<path d="M2593 7795 c-8 -9 -9 -16 -3 -20 6 -3 10 -1 10 5 0 6 4 9 8 6 5 -3 9
1 9 9 0 19 -8 18 -24 0z"/>
<path d="M420 7780 c-8 -5 -10 -10 -5 -10 6 0 17 5 25 10 8 5 11 10 5 10 -5 0
-17 -5 -25 -10z"/>
<path d="M2630 7780 c0 -5 5 -10 11 -10 5 0 7 5 4 10 -3 6 -8 10 -11 10 -2 0
-4 -4 -4 -10z"/>
<path d="M2689 7669 c-10 -6 -11 -11 -3 -19 11 -11 44 -4 44 10 0 13 -26 19
-41 9z m21 -9 c0 -5 -5 -10 -11 -10 -5 0 -7 5 -4 10 3 6 8 10 11 10 2 0 4 -4
4 -10z"/>
<path d="M470 7621 c0 -6 5 -13 12 -17 6 -4 8 -3 4 4 -3 5 0 13 6 15 8 3 6 6
-4 6 -10 1 -18 -3 -18 -8z"/>
<path d="M575 7400 c3 -5 8 -10 11 -10 2 0 4 5 4 10 0 6 -5 10 -11 10 -5 0 -7
-4 -4 -10z"/>
<path d="M2915 7400 c3 -5 8 -10 11 -10 2 0 4 5 4 10 0 6 -5 10 -11 10 -5 0
-7 -4 -4 -10z"/>
<path d="M3035 7180 c-3 -5 -1 -10 4 -10 6 0 11 5 11 10 0 6 -2 10 -4 10 -3 0
-8 -4 -11 -10z"/>
<path d="M5255 7160 c6 -10 4 -12 -8 -7 -21 8 -22 3 -3 -12 10 -9 15 -8 19 3
4 9 1 18 -5 22 -7 5 -8 2 -3 -6z"/>
<path d="M711 7141 c-10 -6 -9 -10 3 -14 8 -3 18 -2 21 3 8 13 -9 20 -24 11z"/>
<path d="M5428 7133 c7 -3 16 -2 19 1 4 3 -2 6 -13 5 -11 0 -14 -3 -6 -6z"/>
<path d="M4995 7120 c-3 -5 -1 -10 4 -10 6 0 11 5 11 10 0 6 -2 10 -4 10 -3 0
-8 -4 -11 -10z"/>
<path d="M5200 7121 c0 -5 5 -13 10 -16 6 -3 10 -2 10 4 0 5 -4 13 -10 16 -5
3 -10 2 -10 -4z"/>
<path d="M5310 7119 c0 -5 5 -7 10 -4 6 3 10 8 10 11 0 2 -4 4 -10 4 -5 0 -10
-5 -10 -11z"/>
<path d="M4906 7098 c3 -5 10 -6 15 -3 13 9 11 12 -6 12 -8 0 -12 -4 -9 -9z"/>
<path d="M742 7088 c-15 -15 -16 -31 0 -26 6 2 12 12 14 21 3 20 2 21 -14 5z"/>
<path d="M3110 7050 c-9 -6 -10 -10 -3 -10 6 0 15 5 18 10 8 12 4 12 -15 0z"/>
<path d="M735 7040 c-3 -6 1 -7 10 -4 9 4 15 3 13 -2 -1 -5 1 -19 5 -31 9 -26
36 -39 32 -15 -1 9 -8 16 -14 15 -14 -4 -15 14 -1 22 6 4 8 11 5 16 -8 12 -42
12 -50 -1z"/>
<path d="M3150 6959 c-9 -16 -8 -26 7 -47 9 -15 16 -31 15 -37 -2 -5 3 -4 10
3 11 11 10 15 -4 23 -11 6 -15 20 -14 44 4 40 1 43 -14 14z"/>
<path d="M768 6959 c6 -9 8 -20 4 -25 -4 -4 2 -2 13 6 30 21 32 24 14 17 -9
-3 -23 0 -30 6 -11 10 -11 9 -1 -4z"/>
<path d="M5600 6900 c-10 -6 -11 -10 -2 -10 6 0 11 -5 10 -11 -2 -6 5 -13 14
-14 11 -2 15 2 11 11 -3 8 -10 14 -17 14 -6 0 -4 5 4 10 8 5 11 10 5 10 -5 0
-17 -5 -25 -10z"/>
<path d="M5710 6750 c-9 -6 -10 -10 -3 -10 6 0 15 5 18 10 8 12 4 12 -15 0z"/>
<path d="M5680 6732 c0 -5 6 -15 14 -21 7 -6 12 -23 10 -37 -2 -18 2 -24 14
-22 8 2 14 8 11 13 -2 6 -7 9 -11 8 -5 -2 -8 1 -8 6 0 5 5 11 12 13 6 2 8 10
4 16 -10 16 -46 35 -46 24z"/>
<path d="M3899 6683 c-1 -5 -1 -12 0 -16 1 -4 -6 -10 -14 -13 -8 -4 -15 -14
-15 -23 1 -13 3 -13 16 4 8 11 17 19 19 18 13 -7 16 -1 6 10 -6 8 -8 17 -4 20
3 4 3 7 0 7 -4 0 -8 -3 -8 -7z"/>
<path d="M5747 6675 c3 -8 9 -12 14 -9 12 7 11 11 -5 17 -10 4 -13 1 -9 -8z"/>
<path d="M3271 6675 c0 -5 3 -16 8 -23 7 -11 9 -10 14 3 4 9 3 14 -2 10 -5 -3
-12 1 -14 7 -3 7 -6 9 -6 3z"/>
<path d="M3800 6640 c-9 -6 -10 -10 -3 -10 6 0 15 5 18 10 8 12 4 12 -15 0z"/>
<path d="M5775 6620 c3 -5 8 -10 11 -10 2 0 4 5 4 10 0 6 -5 10 -11 10 -5 0
-7 -4 -4 -10z"/>
<path d="M5796 6574 c-17 -16 -13 -35 7 -33 8 0 8 2 -1 6 -10 4 -9 9 4 24 21
23 12 26 -10 3z"/>
<path d="M3686 6527 c3 -10 9 -15 12 -12 3 3 0 11 -7 18 -10 9 -11 8 -5 -6z"/>
<path d="M5821 6514 c0 -11 3 -14 6 -6 3 7 2 16 -1 19 -3 4 -6 -2 -5 -13z"/>
<path d="M3360 6480 c-9 -6 -10 -10 -3 -10 6 0 15 5 18 10 8 12 4 12 -15 0z"/>
<path d="M3590 6480 c-13 -8 -12 -10 3 -10 9 0 17 5 17 10 0 12 -1 12 -20 0z"/>
<path d="M3543 6441 c1 -13 -4 -26 -12 -29 -8 -3 -11 0 -7 7 5 7 1 9 -9 5 -9
-4 -15 -7 -13 -8 2 -1 14 -10 27 -21 14 -11 21 -14 17 -7 -10 17 35 59 59 56
9 -1 14 0 11 4 -14 13 -46 11 -46 -3 0 -21 -17 -19 -24 3 -3 10 -4 8 -3 -7z"/>
<path d="M973 6415 c0 -8 4 -12 9 -9 5 3 6 10 3 15 -9 13 -12 11 -12 -6z"/>
<path d="M3389 6361 c0 -3 -2 -13 -4 -22 -2 -11 4 -15 21 -15 13 1 24 5 24 9
0 4 0 10 0 13 0 4 -6 1 -13 -5 -8 -6 -17 -8 -20 -4 -4 3 1 11 9 18 15 11 15
12 0 12 -9 0 -16 -3 -17 -6z"/>
<path d="M1024 6278 c-4 -6 -3 -8 3 -5 13 8 36 -17 25 -28 -4 -5 -1 -5 7 0 10
6 11 2 6 -15 -6 -20 -5 -21 8 -9 8 8 11 18 7 24 -5 6 -9 15 -10 20 -1 6 -6 9
-11 8 -5 -2 -9 2 -9 7 0 14 -17 13 -26 -2z"/>
<path d="M5959 6233 c-13 -16 -12 -17 4 -4 9 7 17 15 17 17 0 8 -8 3 -21 -13z"/>
<path d="M1068 6158 c5 -5 16 -8 23 -6 8 3 3 7 -10 11 -17 4 -21 3 -13 -5z"/>
<path d="M5963 6155 c-9 -9 -9 -16 -2 -20 6 -5 6 -12 -3 -23 -12 -15 -11 -16
4 -3 10 7 15 17 12 23 -3 5 0 15 6 23 16 19 -1 19 -17 0z"/>
<path d="M1115 6092 c16 -11 17 -34 3 -45 -9 -6 -8 -7 5 -3 9 3 17 1 17 -4 0
-5 -8 -14 -17 -19 -10 -6 -13 -11 -7 -11 5 0 15 5 21 11 9 9 12 7 12 -7 1 -38
4 -53 11 -49 10 6 4 48 -10 75 -6 12 -9 24 -6 27 8 8 -14 33 -28 33 -7 0 -7
-3 -1 -8z"/>
<path d="M6028 6011 c5 -14 4 -14 -14 -1 -17 14 -18 13 -7 -1 7 -9 10 -19 6
-22 -3 -4 -2 -7 4 -7 5 0 15 11 20 23 9 18 8 24 -2 24 -8 0 -11 -7 -7 -16z"/>
<path d="M6070 5890 c6 -11 13 -20 16 -20 2 0 0 9 -6 20 -6 11 -13 20 -16 20
-2 0 0 -9 6 -20z"/>
<path d="M1166 5885 c-3 -8 -1 -15 4 -15 6 0 10 7 10 15 0 8 -2 15 -4 15 -2 0
-6 -7 -10 -15z"/>
<path d="M6045 5883 c2 -10 4 -20 5 -23 1 -3 2 -8 1 -12 -1 -9 27 -4 36 7 4 4
4 6 -2 3 -10 -6 -30 10 -32 25 -1 5 -4 11 -6 14 -3 3 -4 -3 -2 -14z"/>
<path d="M1183 5835 c-1 -11 1 -15 4 -8 2 7 11 9 19 6 11 -4 12 -9 3 -19 -6
-8 -8 -14 -5 -14 4 0 2 -10 -4 -22 -10 -21 -10 -22 4 -5 8 10 17 18 20 18 16
-2 17 0 6 14 -7 8 -9 15 -5 15 4 0 2 6 -4 13 -6 8 -9 16 -6 18 2 3 -4 5 -14 5
-10 0 -17 -8 -18 -21z"/>
<path d="M1175 5800 c-3 -5 -1 -10 4 -10 6 0 11 5 11 10 0 6 -2 10 -4 10 -3 0
-8 -4 -11 -10z"/>
<path d="M6104 5660 c1 -25 3 -28 15 -15 12 12 12 16 -1 29 -14 13 -16 12 -14
-14z"/>
<path d="M1273 5583 c9 -2 14 -9 11 -15 -4 -7 -2 -8 5 -4 15 10 4 26 -17 25
-15 -1 -15 -2 1 -6z"/>
<path d="M1382 5171 c-11 -6 -10 -10 4 -15 20 -8 32 0 18 14 -5 5 -15 5 -22 1z"/>
<path d="M6220 5040 c0 -3 8 -10 18 -16 14 -9 18 -8 18 5 0 9 -8 17 -18 17
-10 0 -18 -3 -18 -6z"/>
<path d="M1456 4850 c-19 -20 -19 -20 0 -41 10 -12 18 -31 16 -43 -2 -19 -2
-19 9 -3 7 11 7 22 1 30 -5 7 -8 27 -6 45 1 17 2 32 1 31 -1 0 -11 -9 -21 -19z
m11 -25 c0 -8 -4 -12 -9 -9 -4 3 -8 9 -8 15 0 5 4 9 8 9 5 0 9 -7 9 -15z"/>
<path d="M6266 4742 c-3 -5 1 -9 9 -9 8 0 12 4 9 9 -3 4 -7 8 -9 8 -2 0 -6 -4
-9 -8z"/>
<path d="M1498 4523 c5 -21 7 -23 10 -9 2 10 0 22 -6 28 -6 6 -7 0 -4 -19z"/>
<path d="M1560 4340 c-8 -5 -12 -12 -9 -15 4 -3 12 1 19 10 14 17 11 19 -10 5z"/>
<path d="M6375 4339 c-4 -6 -5 -12 -2 -15 2 -3 7 2 10 11 7 17 1 20 -8 4z"/>
<path d="M6320 4319 c0 -5 5 -7 10 -4 6 3 10 8 10 11 0 2 -4 4 -10 4 -5 0 -10
-5 -10 -11z"/>
<path d="M7105 4322 c2 -3 0 -14 -6 -26 -9 -19 -9 -19 4 -4 8 10 16 15 19 12
3 -2 8 1 11 8 3 9 -2 14 -14 14 -10 0 -16 -2 -14 -4z"/>
<path d="M7413 4275 c0 -8 4 -12 9 -9 5 3 6 10 3 15 -9 13 -12 11 -12 -6z"/>
<path d="M7616 4227 c3 -10 9 -15 12 -12 3 3 0 11 -7 18 -10 9 -11 8 -5 -6z"/>
<path d="M1554 4210 c0 -13 4 -16 10 -10 7 7 7 13 0 20 -6 6 -10 3 -10 -10z"/>
<path d="M7596 4195 c-3 -8 -1 -15 4 -15 6 0 10 7 10 15 0 8 -2 15 -4 15 -2 0
-6 -7 -10 -15z"/>
<path d="M7710 4180 c-9 -6 -10 -10 -3 -10 6 0 15 5 18 10 8 12 4 12 -15 0z"/>
<path d="M1558 4128 c2 -10 6 -18 7 -18 1 0 5 8 7 18 3 11 0 19 -7 19 -7 0
-10 -8 -7 -19z"/>
<path d="M1585 4129 c-10 -15 3 -25 16 -12 7 7 7 13 1 17 -6 3 -14 1 -17 -5z"/>
<path d="M7886 4081 c-3 -4 14 -22 38 -39 l43 -31 12 27 c10 24 10 25 -2 10
-15 -19 -28 -24 -26 -10 4 25 -2 34 -14 23 -8 -6 -17 -8 -20 -4 -4 3 1 12 11
20 15 13 15 13 -5 4 -27 -14 -36 -14 -28 -1 3 6 4 10 1 10 -3 0 -7 -4 -10 -9z"/>
<path d="M1598 4003 c6 -2 9 -10 6 -15 -4 -7 -2 -8 4 -4 18 11 14 26 -5 25
-11 0 -13 -3 -5 -6z"/>
<path d="M8055 4000 c-3 -5 -1 -10 4 -10 6 0 11 5 11 10 0 6 -2 10 -4 10 -3 0
-8 -4 -11 -10z"/>
<path d="M1594 3963 c3 -4 0 -13 -7 -22 -10 -14 -10 -14 5 -3 13 10 17 10 21
0 3 -10 8 -10 17 -2 9 9 9 14 -2 20 -15 10 -42 15 -34 7z"/>
<path d="M8224 3838 c0 -10 1 -18 3 -18 1 0 7 8 12 18 7 13 6 19 -2 19 -7 0
-13 -9 -13 -19z"/>
<path d="M8270 3813 c8 -3 7 -9 -1 -19 -10 -12 -9 -13 5 -8 18 7 17 26 -2 30
-7 1 -8 0 -2 -3z"/>
<path d="M1620 3749 c-13 -9 -13 -10 1 -6 9 3 23 0 30 -6 11 -10 11 -9 0 6 -7
9 -14 17 -15 17 0 0 -8 -5 -16 -11z"/>
<path d="M1644 3569 c8 -12 13 -26 12 -33 -2 -6 -1 -8 1 -3 3 4 10 4 16 0 6
-4 1 8 -12 25 -12 18 -25 32 -27 32 -3 0 2 -10 10 -21z"/>
<path d="M1660 3510 c-13 -9 -13 -10 0 -10 13 0 13 -1 0 -11 -12 -8 -12 -10
-1 -7 8 2 15 12 17 21 3 20 3 19 -16 7z"/>
<path d="M1670 3470 c-12 -7 -12 -11 -2 -20 6 -5 10 -7 7 -4 -3 4 0 13 6 21
13 15 10 16 -11 3z"/>
<path d="M8626 3397 c3 -10 9 -15 12 -12 3 3 0 11 -7 18 -10 9 -11 8 -5 -6z"/>
<path d="M1681 3118 c-13 -20 -12 -22 1 -11 8 7 18 10 22 6 4 -4 4 0 0 10 -8
21 -6 21 -23 -5z"/>
<path d="M1695 3069 c-1 -31 7 -30 12 1 1 10 -1 21 -5 24 -4 2 -7 -9 -7 -25z"/>
<path d="M8815 3010 c-17 -18 -14 -25 9 -21 5 1 6 -5 3 -13 -4 -9 -2 -18 4
-21 5 -4 7 -10 4 -15 -3 -4 2 -13 10 -20 8 -7 13 -15 11 -19 -3 -4 -1 -13 5
-21 6 -11 9 -12 9 -2 0 7 4 11 8 8 5 -3 9 1 9 9 0 8 -3 13 -6 12 -3 -1 -6 1
-6 4 0 3 -6 13 -14 22 -9 11 -10 17 -2 17 6 0 11 5 11 11 0 5 -4 8 -9 4 -6 -3
-15 5 -22 17 -15 27 -15 28 3 39 7 5 8 9 2 9 -6 0 -19 -9 -29 -20z"/>
<path d="M1716 2887 c-16 -12 -16 -14 -3 -14 9 0 18 6 21 14 3 7 4 13 3 13 -2
0 -11 -6 -21 -13z"/>
<path d="M1720 2833 c6 -3 4 -10 -5 -20 -8 -8 -15 -20 -15 -26 0 -8 3 -8 9 1
4 8 12 13 17 13 14 -1 10 32 -4 35 -7 1 -8 0 -2 -3z"/>
<path d="M1715 2769 c-4 -6 -5 -12 -2 -15 2 -3 7 2 10 11 7 17 1 20 -8 4z"/>
<path d="M8926 2695 c-11 -9 -15 -18 -10 -27 5 -7 9 -16 10 -20 1 -5 3 -11 4
-15 2 -5 3 -19 4 -32 1 -18 7 -25 24 -26 12 -1 22 2 22 7 0 4 -6 8 -13 8 -7 0
-13 9 -14 20 -1 11 2 18 6 16 4 -3 8 1 8 9 0 8 -4 12 -8 10 -3 -3 -12 2 -18 9
-8 10 -9 16 -1 21 5 3 10 1 10 -5 0 -6 5 -8 11 -4 8 5 6 10 -5 16 -9 5 -14 13
-11 19 8 12 3 11 -19 -6z"/>
<path d="M1710 2356 c7 -7 13 -7 20 0 6 6 3 10 -10 10 -13 0 -16 -4 -10 -10z"/>
<path d="M1708 1998 c2 -10 9 -18 16 -18 6 0 5 -4 -3 -9 -11 -7 -12 -13 -3
-23 9 -11 9 -17 0 -26 -8 -8 -9 -12 -1 -12 15 0 24 28 12 36 -6 4 -4 13 7 25
16 17 13 24 -10 20 -5 -1 -6 4 -3 12 3 7 -1 14 -8 14 -7 0 -10 -8 -7 -19z"/>
<path d="M7806 2002 c-3 -5 1 -9 9 -9 8 0 12 4 9 9 -3 4 -7 8 -9 8 -2 0 -6 -4
-9 -8z"/>
<path d="M7436 1955 c-9 -26 -7 -32 5 -12 6 10 9 21 6 23 -2 3 -7 -2 -11 -11z"/>
<path d="M7355 1940 c-4 -6 -11 -7 -17 -4 -5 4 -2 -5 7 -20 14 -22 35 -28 35
-10 0 3 -4 2 -10 -1 -13 -8 -13 8 1 22 7 7 7 13 1 17 -6 3 -13 2 -17 -4z"/>
<path d="M1695 1929 c-4 -6 -5 -12 -2 -15 2 -3 7 2 10 11 7 17 1 20 -8 4z"/>
<path d="M8075 1931 c-3 -5 -2 -12 3 -15 5 -3 9 1 9 9 0 17 -3 19 -12 6z"/>
<path d="M7393 1915 c0 -8 4 -12 9 -9 5 3 6 10 3 15 -9 13 -12 11 -12 -6z"/>
<path d="M8270 1916 c0 -8 4 -17 9 -20 5 -4 7 3 4 14 -6 23 -13 26 -13 6z"/>
<path d="M8196 1898 c3 -5 10 -6 15 -3 13 9 11 12 -6 12 -8 0 -12 -4 -9 -9z"/>
<path d="M1696 1883 c-6 -14 -5 -15 5 -6 7 7 10 15 7 18 -3 3 -9 -2 -12 -12z"/>
<path d="M7179 1873 c-8 -9 -9 -14 -2 -10 6 4 14 1 16 -5 4 -10 6 -10 6 -1 1
7 8 10 19 6 18 -7 17 -5 -9 15 -13 10 -19 9 -30 -5z"/>
<path d="M8415 1860 c-3 -5 -1 -10 4 -10 6 0 11 5 11 10 0 6 -2 10 -4 10 -3 0
-8 -4 -11 -10z"/>
<path d="M7150 1842 c0 -4 9 -8 19 -8 11 0 17 4 15 8 -3 4 -12 8 -20 8 -8 0
-14 -4 -14 -8z"/>
<path d="M8454 1842 c4 -3 14 -7 22 -8 9 -1 13 0 10 4 -4 3 -14 7 -22 8 -9 1
-13 0 -10 -4z"/>
<path d="M8624 1828 c-11 -12 -14 -18 -7 -15 6 4 13 3 15 -3 2 -6 9 -1 15 9
18 28 -1 35 -23 9z"/>
<path d="M8718 1813 c6 -2 9 -10 6 -15 -4 -7 -2 -8 5 -4 13 9 5 26 -12 25 -9
0 -8 -2 1 -6z"/>
<path d="M6989 1774 c-1 -5 -1 -12 0 -17 1 -4 -12 -5 -28 -2 -23 4 -32 0 -46
-22 -15 -23 -16 -25 -2 -20 10 4 20 -1 26 -11 6 -9 11 -12 11 -6 0 5 -5 15
-12 22 -9 9 -9 15 1 25 10 10 12 9 9 -2 -2 -7 4 -16 12 -18 12 -4 12 -3 1 5
-16 11 -4 19 25 17 13 -1 21 3 20 11 -3 17 -16 31 -17 18z"/>
<path d="M7030 1770 c-9 -6 -10 -10 -3 -10 6 0 15 5 18 10 8 12 4 12 -15 0z"/>
<path d="M1685 1724 c12 -13 19 -14 28 -5 6 6 9 11 7 12 -3 0 -15 2 -28 5 -22
4 -22 3 -7 -12z"/>
<path d="M1668 1613 c6 -2 10 -8 8 -12 -3 -4 5 -8 17 -8 21 -2 22 -1 3 13 -11
8 -25 14 -30 13 -6 0 -5 -3 2 -6z"/>
<path d="M6630 1279 c0 -5 5 -7 10 -4 6 3 10 8 10 11 0 2 -4 4 -10 4 -5 0 -10
-5 -10 -11z"/>
<path d="M6596 1211 c-4 -5 -2 -12 3 -15 5 -4 12 -2 15 3 4 5 2 12 -3 15 -5 4
-12 2 -15 -3z"/>
<path d="M6550 1051 c0 -6 4 -12 8 -15 5 -3 9 1 9 9 0 8 -4 15 -9 15 -4 0 -8
-4 -8 -9z"/>
<path d="M6526 922 c-3 -5 1 -9 9 -9 8 0 12 4 9 9 -3 4 -7 8 -9 8 -2 0 -6 -4
-9 -8z"/>
<path d="M1575 900 c-3 -5 -1 -10 4 -10 6 0 11 5 11 10 0 6 -2 10 -4 10 -3 0
-8 -4 -11 -10z"/>
<path d="M1590 871 c0 -6 4 -13 10 -16 6 -3 7 1 4 9 -7 18 -14 21 -14 7z"/>
<path d="M1590 810 c0 -5 5 -10 11 -10 5 0 7 5 4 10 -3 6 -8 10 -11 10 -2 0
-4 -4 -4 -10z"/>
<path d="M6490 785 c0 -2 10 -10 23 -16 20 -11 21 -11 8 4 -13 16 -31 23 -31
12z"/>
<path d="M1577 764 c2 -7 11 -10 19 -7 19 7 18 10 -5 16 -13 3 -18 1 -14 -9z"/>
<path d="M6512 710 c-7 -12 -18 -18 -24 -14 -7 5 -8 3 -2 -7 5 -8 9 -16 9 -19
0 -3 6 -14 14 -25 8 -14 11 -15 7 -3 -2 9 2 22 10 29 10 8 11 16 5 22 -5 5 -7
16 -4 23 8 21 0 17 -15 -6z m12 -19 c3 -5 -1 -14 -8 -20 -12 -10 -13 -8 -9 8
6 23 9 25 17 12z"/>
<path d="M1541 594 c0 -11 3 -14 6 -6 3 7 2 16 -1 19 -3 4 -6 -2 -5 -13z"/>
<path d="M6550 539 c0 -5 5 -7 10 -4 6 3 10 8 10 11 0 2 -4 4 -10 4 -5 0 -10
-5 -10 -11z"/>
<path d="M6550 460 c-13 -8 -12 -10 3 -10 9 0 17 5 17 10 0 12 -1 12 -20 0z"/>
<path d="M1480 200 c8 -5 20 -10 25 -10 6 0 3 5 -5 10 -8 5 -19 10 -25 10 -5
0 -3 -5 5 -10z"/>
<path d="M1480 120 c0 -5 5 -10 11 -10 5 0 7 5 4 10 -3 6 -8 10 -11 10 -2 0
-4 -4 -4 -10z"/>
<path d="M1515 120 c-3 -5 -1 -10 4 -10 6 0 11 5 11 10 0 6 -2 10 -4 10 -3 0
-8 -4 -11 -10z"/>
<path d="M6590 116 c0 -8 4 -17 9 -20 5 -4 7 3 4 14 -6 23 -13 26 -13 6z"/>
</g>
</svg>
